<svg id="Header_Background" data-name="Header Background" xmlns="http://www.w3.org/2000/svg" xmlns:xlink="http://www.w3.org/1999/xlink" viewBox="0 0 2432 658"><defs><style>.cls-1{fill:none;}.cls-2{clip-path:url(#clip-path);}.cls-3{fill:#fed10a;}.cls-10,.cls-11,.cls-12,.cls-13,.cls-3,.cls-4,.cls-5,.cls-6,.cls-7,.cls-8,.cls-9{fill-rule:evenodd;}.cls-4{fill:#f9b110;}.cls-5{fill:#00a9e5;}.cls-6{fill:#0078a0;}.cls-7{fill:#00bfb3;}.cls-8{fill:#019b8f;}.cls-9{fill:#f04e98;}.cls-10{fill:#dd0a73;}.cls-11{fill:url(#radial-gradient);}.cls-12{fill:#231f20;opacity:0.38;}.cls-13{fill:url(#radial-gradient-2);}</style><clipPath id="clip-path"><rect class="cls-1" y="-0.5" width="2432" height="658"/></clipPath><radialGradient id="radial-gradient" cx="901.9" cy="-181.77" r="990.64" gradientUnits="userSpaceOnUse"><stop offset="0" stop-color="#5f6369"/><stop offset="1" stop-color="#343741"/></radialGradient><radialGradient id="radial-gradient-2" cx="1740.93" cy="-179.73" r="990.64" xlink:href="#radial-gradient"/></defs><title>Lemon & Kiwi Page Assets Outlined</title><g class="cls-2"><path class="cls-3" d="M1675.56,407.62l-48.11,27.61a.89.89,0,0,0,0,1.55l48.11,27.61a.89.89,0,0,0,.89,0l48.11-27.61a.89.89,0,0,0,0-1.55l-48.11-27.61a.89.89,0,0,0-.89,0Z"/><path class="cls-4" d="M1649.56,392.62l-48.11,27.61a.89.89,0,0,0,0,1.55l48.11,27.61a.89.89,0,0,0,.89,0l48.11-27.61a.89.89,0,0,0,0-1.55l-48.11-27.61a.89.89,0,0,0-.89,0Z"/><path class="cls-5" d="M762,349.89l-73.25,42a1.36,1.36,0,0,0,0,2.36l73.25,42a1.36,1.36,0,0,0,1.35,0l73.25-42a1.36,1.36,0,0,0,0-2.36l-73.25-42a1.36,1.36,0,0,0-1.35,0Z"/><path class="cls-6" d="M791.85,337.67l-69.21,39.72a1.28,1.28,0,0,0,0,2.23l69.21,39.72a1.29,1.29,0,0,0,1.28,0l69.21-39.72a1.28,1.28,0,0,0,0-2.23l-69.21-39.72a1.29,1.29,0,0,0-1.28,0Z"/><path class="cls-7" d="M115.73-250,1458.16,539.67a6,6,0,0,0,6.13,0L2802-250v4.46H113.86Z"/><path class="cls-8" d="M98.73-260,1441.16,529.67a6,6,0,0,0,6.13,0L2785-260v4.46H96.86Z"/><path class="cls-9" d="M-645.27-398,697.16,391.67a6,6,0,0,0,6.13,0L2041-398v4.46H-647.14Z"/><path class="cls-10" d="M-645.27-426,697.16,363.67a6,6,0,0,0,6.13,0L2041-426v4.46H-647.14Z"/><path class="cls-11" d="M-131.27-139,1211.16,650.67a6,6,0,0,0,6.13,0L2555-139v4.46H-133.14Z"/><path class="cls-12" d="M434.73-513,1777.16,276.67a6,6,0,0,0,6.13,0L3121-513v4.46H432.86Z"/><path class="cls-13" d="M398.73-575,1741.16,214.67a6,6,0,0,0,6.13,0L3085-575v4.46H396.86Z"/></g><rect class="cls-1" y="-0.5" width="2432" height="658"/></svg>
