<svg id="Ebene_1" data-name="Ebene 1" xmlns="http://www.w3.org/2000/svg" viewBox="0 0 211.17 192.73"><defs><style>.cls-1{fill:none;stroke:#71b797;stroke-linecap:round;stroke-miterlimit:10;stroke-width:0.5px;stroke-dasharray:0.75 1.25;}.cls-2{fill:#2f3089;}.cls-3{fill:#fff;}.cls-4{fill:#e86680;}</style></defs><title>brain</title><line class="cls-1" x1="16.35" y1="47.18" x2="5.48" y2="74.75"/><line class="cls-1" x1="16.35" y1="47.18" x2="21.82" y2="74.69"/><line class="cls-1" x1="32.69" y1="58.19" x2="5.48" y2="74.75"/><line class="cls-1" x1="21.82" y1="74.69" x2="5.48" y2="74.75"/><line class="cls-1" x1="38.15" y1="80.31" x2="5.48" y2="74.75"/><line class="cls-1" x1="16.32" y1="85.76" x2="5.48" y2="74.75"/><line class="cls-1" x1="32.71" y1="91.25" x2="5.48" y2="74.75"/><line class="cls-1" x1="16.32" y1="85.76" x2="21.82" y2="74.69"/><line class="cls-1" x1="16.32" y1="85.76" x2="38.05" y2="63.7"/><line class="cls-1" x1="16.32" y1="85.76" x2="38.15" y2="80.31"/><line class="cls-1" x1="16.32" y1="85.76" x2="43.55" y2="80.26"/><line class="cls-1" x1="16.32" y1="85.76" x2="32.71" y2="91.25"/><line class="cls-1" x1="32.71" y1="91.25" x2="21.82" y2="74.69"/><line class="cls-1" x1="32.71" y1="91.25" x2="38.05" y2="63.7"/><line class="cls-1" x1="32.71" y1="91.25" x2="38.15" y2="80.31"/><line class="cls-1" x1="32.71" y1="91.25" x2="43.55" y2="80.26"/><line class="cls-1" x1="32.71" y1="91.25" x2="54.46" y2="80.17"/><line class="cls-1" x1="32.71" y1="91.25" x2="65.4" y2="107.93"/><line class="cls-1" x1="65.29" y1="91.25" x2="43.55" y2="80.26"/><line class="cls-1" x1="65.29" y1="91.25" x2="54.46" y2="80.17"/><line class="cls-1" x1="65.4" y1="74.69" x2="54.46" y2="80.17"/><line class="cls-1" x1="70.8" y1="91.25" x2="54.46" y2="80.17"/><line class="cls-1" x1="43.55" y1="80.26" x2="54.46" y2="80.17"/><line class="cls-1" x1="65.29" y1="91.25" x2="65.4" y2="74.69"/><line class="cls-1" x1="65.29" y1="91.25" x2="65.4" y2="107.93"/><line class="cls-1" x1="70.8" y1="91.25" x2="65.4" y2="107.93"/><line class="cls-1" x1="76.2" y1="102.39" x2="65.4" y2="107.93"/><line class="cls-1" x1="81.6" y1="96.8" x2="65.4" y2="107.93"/><line class="cls-1" x1="81.6" y1="113.33" x2="65.4" y2="107.93"/><line class="cls-1" x1="81.6" y1="113.33" x2="70.8" y2="91.25"/><line class="cls-1" x1="81.6" y1="113.33" x2="81.6" y2="96.8"/><line class="cls-1" x1="81.6" y1="113.33" x2="98.02" y2="102.34"/><line class="cls-1" x1="81.6" y1="113.33" x2="92.6" y2="118.87"/><line class="cls-1" x1="98.02" y1="102.34" x2="92.6" y2="118.87"/><line class="cls-1" x1="114.38" y1="113.38" x2="92.6" y2="118.87"/><line class="cls-1" x1="119.77" y1="118.87" x2="92.6" y2="118.87"/><line class="cls-1" x1="103.51" y1="96.8" x2="92.6" y2="118.87"/><line class="cls-1" x1="81.6" y1="96.8" x2="92.6" y2="118.87"/><line class="cls-1" x1="65.29" y1="91.25" x2="92.6" y2="118.87"/><line class="cls-1" x1="65.29" y1="91.25" x2="70.8" y2="91.25"/><line class="cls-1" x1="81.6" y1="96.8" x2="98.02" y2="102.34"/><line class="cls-1" x1="81.6" y1="96.8" x2="70.8" y2="91.25"/><line class="cls-1" x1="81.6" y1="96.8" x2="81.6" y2="80.31"/><line class="cls-1" x1="70.8" y1="91.25" x2="81.6" y2="80.31"/><line class="cls-1" x1="81.6" y1="96.8" x2="76.2" y2="102.39"/><line class="cls-1" x1="114.38" y1="113.38" x2="98.02" y2="102.34"/><line class="cls-1" x1="119.77" y1="118.87" x2="98.02" y2="102.34"/><line class="cls-1" x1="103.51" y1="96.8" x2="98.02" y2="102.34"/><line class="cls-1" x1="103.51" y1="96.8" x2="114.38" y2="113.38"/><line class="cls-1" x1="103.51" y1="96.8" x2="119.77" y2="107.84"/><line class="cls-1" x1="114.38" y1="113.38" x2="119.77" y2="107.84"/><line class="cls-1" x1="114.38" y1="113.38" x2="119.77" y2="118.87"/><line class="cls-1" x1="119.79" y1="129.91" x2="119.77" y2="118.87"/><line class="cls-1" x1="119.79" y1="129.91" x2="114.38" y2="113.38"/><line class="cls-1" x1="119.77" y1="118.87" x2="157.9" y2="124.46"/><line class="cls-1" x1="119.77" y1="118.87" x2="119.77" y2="107.84"/><line class="cls-1" x1="119.77" y1="118.87" x2="125.22" y2="107.81"/><line class="cls-1" x1="114.38" y1="113.38" x2="125.22" y2="107.81"/><line class="cls-1" x1="119.77" y1="107.84" x2="125.22" y2="107.81"/><line class="cls-1" x1="119.77" y1="107.84" x2="136.09" y2="91.21"/><line class="cls-1" x1="125.22" y1="107.81" x2="136.09" y2="91.21"/><line class="cls-1" x1="152.43" y1="141" x2="136.09" y2="91.21"/><line class="cls-1" x1="125.22" y1="107.81" x2="152.43" y2="118.87"/><line class="cls-1" x1="119.79" y1="129.91" x2="152.43" y2="118.87"/><line class="cls-1" x1="119.79" y1="129.91" x2="130.64" y2="151.99"/><line class="cls-1" x1="157.9" y1="124.46" x2="130.64" y2="151.99"/><line class="cls-1" x1="136.11" y1="174.11" x2="130.64" y2="151.99"/><line class="cls-1" x1="141.65" y1="157.56" x2="130.64" y2="151.99"/><line class="cls-1" x1="152.45" y1="146.54" x2="130.64" y2="151.99"/><line class="cls-1" x1="152.43" y1="141" x2="130.64" y2="151.99"/><line class="cls-1" x1="158.02" y1="185.2" x2="130.64" y2="151.99"/><line class="cls-1" x1="157.93" y1="190.69" x2="130.64" y2="151.99"/><line class="cls-1" x1="157.93" y1="190.69" x2="136.11" y2="174.11"/><line class="cls-1" x1="158.02" y1="185.2" x2="136.11" y2="174.11"/><line class="cls-1" x1="158.02" y1="185.2" x2="152.45" y2="146.54"/><line class="cls-1" x1="152.43" y1="157.56" x2="136.11" y2="174.11"/><line class="cls-1" x1="141.65" y1="157.56" x2="136.11" y2="174.11"/><line class="cls-1" x1="152.45" y1="146.54" x2="136.11" y2="174.11"/><line class="cls-1" x1="152.43" y1="141" x2="136.11" y2="174.11"/><line class="cls-1" x1="152.43" y1="157.56" x2="130.64" y2="151.99"/><line class="cls-1" x1="152.43" y1="157.56" x2="141.65" y2="157.56"/><line class="cls-1" x1="152.43" y1="157.56" x2="157.93" y2="190.69"/><line class="cls-1" x1="141.65" y1="157.56" x2="157.93" y2="190.69"/><line class="cls-1" x1="141.65" y1="157.56" x2="158.02" y2="185.2"/><line class="cls-1" x1="152.43" y1="157.56" x2="158.02" y2="185.2"/><line class="cls-1" x1="152.43" y1="157.56" x2="152.45" y2="146.54"/><line class="cls-1" x1="152.43" y1="157.56" x2="157.9" y2="141"/><line class="cls-1" x1="152.43" y1="141" x2="141.65" y2="157.56"/><line class="cls-1" x1="152.43" y1="141" x2="152.45" y2="146.54"/><line class="cls-1" x1="152.43" y1="157.56" x2="157.9" y2="135.38"/><line class="cls-1" x1="152.45" y1="146.54" x2="141.65" y2="157.56"/><line class="cls-1" x1="157.9" y1="135.38" x2="141.65" y2="157.56"/><line class="cls-1" x1="157.9" y1="135.38" x2="152.43" y2="141"/><line class="cls-1" x1="157.9" y1="124.46" x2="152.43" y2="141"/><line class="cls-1" x1="157.9" y1="124.46" x2="157.9" y2="135.38"/><line class="cls-1" x1="157.9" y1="124.46" x2="168.8" y2="124.37"/><line class="cls-1" x1="157.9" y1="124.46" x2="163.38" y2="135.38"/><line class="cls-1" x1="152.43" y1="118.87" x2="163.38" y2="135.38"/><line class="cls-1" x1="152.43" y1="118.87" x2="157.9" y2="135.38"/><line class="cls-1" x1="157.9" y1="124.46" x2="157.9" y2="135.38"/><line class="cls-1" x1="157.9" y1="135.38" x2="152.45" y2="146.54"/><line class="cls-1" x1="157.9" y1="135.38" x2="157.9" y2="141"/><line class="cls-1" x1="157.9" y1="135.38" x2="163.38" y2="135.38"/><line class="cls-1" x1="157.9" y1="135.38" x2="168.8" y2="124.37"/><line class="cls-1" x1="163.38" y1="135.38" x2="152.43" y2="141"/><line class="cls-1" x1="163.38" y1="135.38" x2="157.9" y2="141"/><line class="cls-1" x1="168.8" y1="124.37" x2="157.9" y2="141"/><line class="cls-1" x1="157.9" y1="141" x2="152.45" y2="146.54"/><line class="cls-1" x1="157.9" y1="141" x2="152.43" y2="141"/><line class="cls-1" x1="168.8" y1="124.37" x2="163.38" y2="135.38"/><line class="cls-1" x1="152.43" y1="118.87" x2="168.8" y2="124.37"/><line class="cls-1" x1="168.8" y1="124.37" x2="152.5" y2="113.28"/><line class="cls-1" x1="152.43" y1="118.87" x2="152.5" y2="113.28"/><line class="cls-1" x1="157.9" y1="124.46" x2="152.5" y2="113.28"/><line class="cls-1" x1="152.43" y1="118.87" x2="157.9" y2="124.46"/><line class="cls-1" x1="157.9" y1="124.46" x2="157.93" y2="107.91"/><line class="cls-1" x1="152.43" y1="118.87" x2="157.93" y2="107.91"/><line class="cls-1" x1="152.5" y1="113.28" x2="157.93" y2="107.91"/><line class="cls-1" x1="168.8" y1="124.37" x2="157.93" y2="107.91"/><line class="cls-1" x1="152.43" y1="118.87" x2="163.31" y2="102.27"/><line class="cls-1" x1="152.5" y1="113.28" x2="168.85" y2="102.27"/><line class="cls-1" x1="168.85" y1="102.27" x2="157.93" y2="107.91"/><line class="cls-1" x1="190.57" y1="113.39" x2="157.93" y2="107.91"/><line class="cls-1" x1="190.57" y1="113.39" x2="168.8" y2="124.37"/><line class="cls-1" x1="190.57" y1="113.39" x2="168.85" y2="102.27"/><line class="cls-1" x1="190.57" y1="113.39" x2="163.31" y2="102.27"/><line class="cls-1" x1="190.57" y1="113.39" x2="185.17" y2="102.27"/><line class="cls-1" x1="190.57" y1="113.39" x2="195.9" y2="85.71"/><line class="cls-1" x1="185.17" y1="102.27" x2="168.85" y2="102.27"/><line class="cls-1" x1="179.71" y1="91.21" x2="168.85" y2="102.27"/><line class="cls-1" x1="163.31" y1="91.21" x2="168.85" y2="102.27"/><line class="cls-1" x1="157.87" y1="96.74" x2="168.85" y2="102.27"/><line class="cls-1" x1="163.31" y1="102.27" x2="168.85" y2="102.27"/><line class="cls-1" x1="179.71" y1="91.21" x2="163.31" y2="91.21"/><line class="cls-1" x1="185.17" y1="102.27" x2="163.31" y2="91.21"/><line class="cls-1" x1="163.31" y1="102.27" x2="163.31" y2="91.21"/><line class="cls-1" x1="163.31" y1="102.27" x2="179.71" y2="91.21"/><polyline class="cls-1" points="49.06 30.44 59.93 19.56 65.31 13.96 76.27 2.86 81.67 13.96 87.08 8.42 87.09 30.49 70.73 24.95 65.42 36.3 49.06 30.44 32.69 36.09 43.71 47.17 16.35 47.17"/><polyline class="cls-1" points="65.31 13.96 87.08 8.42 103.56 13.96 81.67 13.96 87.09 30.49 119.79 41.65 92.6 47.05 87.08 47.17 81.66 47.17 70.73 47.17 65.31 47.1 65.42 36.3 54.61 35.98 49.06 52.61 59.88 58.07 65.42 58.19 76.2 58.19 65.42 63.7 81.77 74.69 87.09 69.25 97.95 52.55 114.38 52.61 130.66 58.16 141.6 52.55 141.6 47.12 141.6 36.06 130.66 36.06 136.2 19.56 130.71 19.56 130.71 25.02 125.24 30.52 114.38 30.52 114.38 25.02 114.31 19.41 108.91 19.41 130.66 8.32 157.88 19.41 157.88 47.17 174.25 47.12 179.65 36.06 163.26 19.41 141.6 36.06"/><line class="cls-1" x1="185.17" y1="102.27" x2="195.9" y2="85.71"/><line class="cls-1" x1="179.71" y1="91.21" x2="195.9" y2="85.71"/><line class="cls-1" x1="179.65" y1="80.17" x2="195.9" y2="85.71"/><line class="cls-1" x1="190.53" y1="74.79" x2="195.9" y2="85.71"/><line class="cls-1" x1="174.24" y1="80.25" x2="195.9" y2="85.71"/><line class="cls-1" x1="184.86" y1="69.18" x2="195.9" y2="85.71"/><line class="cls-1" x1="206.84" y1="63.61" x2="195.9" y2="85.71"/><line class="cls-1" x1="206.84" y1="63.61" x2="190.53" y2="74.79"/><line class="cls-1" x1="206.84" y1="63.61" x2="184.86" y2="69.18"/><line class="cls-1" x1="206.84" y1="63.61" x2="174.25" y2="47.12"/><line class="cls-1" x1="206.84" y1="63.61" x2="190.53" y2="41.51"/><line class="cls-1" x1="206.84" y1="63.61" x2="190.38" y2="52.56"/><line class="cls-1" x1="206.84" y1="63.61" x2="185.07" y2="47.12"/><line class="cls-1" x1="168.67" y1="58.16" x2="185.07" y2="47.12"/><line class="cls-1" x1="184.86" y1="69.18" x2="185.07" y2="47.12"/><line class="cls-1" x1="179.65" y1="36.06" x2="185.07" y2="47.12"/><line class="cls-1" x1="179.65" y1="36.06" x2="190.53" y2="41.51"/><line class="cls-1" x1="185.07" y1="47.12" x2="190.53" y2="41.51"/><line class="cls-1" x1="168.67" y1="58.16" x2="190.53" y2="41.51"/><line class="cls-1" x1="174.25" y1="47.12" x2="190.53" y2="41.51"/><line class="cls-1" x1="196.05" y1="58.15" x2="190.53" y2="41.51"/><line class="cls-1" x1="190.38" y1="52.56" x2="190.53" y2="41.51"/><line class="cls-1" x1="179.65" y1="36.06" x2="190.38" y2="52.56"/><line class="cls-1" x1="174.25" y1="47.12" x2="190.38" y2="52.56"/><line class="cls-1" x1="185.07" y1="47.12" x2="190.38" y2="52.56"/><line class="cls-1" x1="196.05" y1="58.15" x2="190.38" y2="52.56"/><line class="cls-1" x1="184.86" y1="69.18" x2="190.38" y2="52.56"/><line class="cls-1" x1="184.86" y1="69.18" x2="196.05" y2="58.15"/><line class="cls-1" x1="190.53" y1="74.79" x2="196.05" y2="58.15"/><line class="cls-1" x1="190.53" y1="74.79" x2="184.86" y2="69.18"/><line class="cls-1" x1="168.67" y1="58.16" x2="184.86" y2="69.18"/><line class="cls-1" x1="168.67" y1="58.16" x2="163.26" y2="63.63"/><line class="cls-1" x1="184.86" y1="69.18" x2="163.26" y2="63.63"/><line class="cls-1" x1="174.24" y1="80.25" x2="163.26" y2="63.63"/><line class="cls-1" x1="174.24" y1="80.25" x2="184.86" y2="69.18"/><line class="cls-1" x1="179.65" y1="80.17" x2="184.86" y2="69.18"/><line class="cls-1" x1="174.24" y1="80.25" x2="190.53" y2="74.79"/><line class="cls-1" x1="179.71" y1="91.21" x2="190.53" y2="74.79"/><line class="cls-1" x1="179.71" y1="91.21" x2="179.65" y2="80.17"/><line class="cls-1" x1="185.17" y1="102.27" x2="179.65" y2="80.17"/><line class="cls-1" x1="185.17" y1="102.27" x2="174.24" y2="80.25"/><line class="cls-1" x1="152.45" y1="80.17" x2="174.24" y2="80.25"/><line class="cls-1" x1="152.45" y1="80.17" x2="163.31" y2="91.21"/><line class="cls-1" x1="152.45" y1="80.17" x2="163.26" y2="63.63"/><line class="cls-1" x1="174.24" y1="80.25" x2="163.31" y2="91.21"/><line class="cls-1" x1="179.65" y1="80.17" x2="163.31" y2="91.21"/><line class="cls-1" x1="179.65" y1="80.17" x2="190.53" y2="74.79"/><line class="cls-1" x1="179.65" y1="80.17" x2="174.24" y2="80.25"/><line class="cls-1" x1="157.93" y1="107.91" x2="163.31" y2="91.21"/><line class="cls-1" x1="157.93" y1="107.91" x2="157.87" y2="96.74"/><line class="cls-1" x1="157.93" y1="107.91" x2="163.31" y2="102.27"/><line class="cls-1" x1="157.93" y1="107.91" x2="146.98" y2="85.73"/><line class="cls-1" x1="152.5" y1="113.28" x2="157.87" y2="96.74"/><line class="cls-1" x1="157.87" y1="96.74" x2="163.31" y2="102.27"/><line class="cls-1" x1="157.87" y1="96.74" x2="146.98" y2="85.73"/><line class="cls-1" x1="157.87" y1="96.74" x2="152.45" y2="80.17"/><line class="cls-1" x1="146.98" y1="85.73" x2="152.45" y2="80.17"/><line class="cls-1" x1="136.09" y1="91.21" x2="152.45" y2="80.17"/><line class="cls-1" x1="136.09" y1="91.21" x2="146.98" y2="85.73"/><line class="cls-1" x1="136.09" y1="91.21" x2="157.87" y2="96.74"/><line class="cls-1" x1="163.31" y1="91.21" x2="146.98" y2="85.73"/><line class="cls-1" x1="163.31" y1="91.21" x2="157.87" y2="96.74"/><line class="cls-1" x1="125.22" y1="85.73" x2="146.98" y2="85.73"/><line class="cls-1" x1="130.66" y1="58.16" x2="152.45" y2="80.17"/><line class="cls-1" x1="157.9" y1="58.07" x2="152.45" y2="80.17"/><line class="cls-1" x1="125.22" y1="85.73" x2="136.09" y2="91.21"/><line class="cls-1" x1="125.22" y1="85.73" x2="125.22" y2="107.81"/><line class="cls-1" x1="125.22" y1="85.73" x2="108.89" y2="80.17"/><line class="cls-1" x1="125.22" y1="85.73" x2="119.77" y2="80.26"/><line class="cls-1" x1="125.22" y1="85.73" x2="114.34" y2="69.16"/><line class="cls-1" x1="125.22" y1="85.73" x2="114.38" y2="52.61"/><line class="cls-1" x1="119.77" y1="80.26" x2="136.09" y2="91.21"/><line class="cls-1" x1="119.77" y1="80.26" x2="103.44" y2="74.71"/><line class="cls-1" x1="119.77" y1="80.26" x2="114.34" y2="69.16"/><line class="cls-1" x1="119.77" y1="80.26" x2="108.89" y2="80.17"/><line class="cls-1" x1="103.51" y1="96.8" x2="103.44" y2="74.71"/><line class="cls-1" x1="87.1" y1="69.25" x2="103.44" y2="74.71"/><line class="cls-1" x1="103.44" y1="69.08" x2="103.44" y2="74.71"/><line class="cls-1" x1="114.34" y1="69.16" x2="103.44" y2="74.71"/><line class="cls-1" x1="114.33" y1="63.61" x2="103.44" y2="74.71"/><line class="cls-1" x1="98.05" y1="80.26" x2="103.44" y2="74.71"/><line class="cls-1" x1="108.89" y1="80.17" x2="103.44" y2="74.71"/><line class="cls-1" x1="108.89" y1="80.17" x2="103.44" y2="69.08"/><line class="cls-1" x1="108.89" y1="80.17" x2="114.34" y2="69.16"/><line class="cls-1" x1="108.89" y1="80.17" x2="130.66" y2="58.16"/><line class="cls-1" x1="108.89" y1="80.17" x2="103.51" y2="96.8"/><line class="cls-1" x1="108.89" y1="80.17" x2="98.05" y2="80.26"/><line class="cls-1" x1="81.6" y1="80.31" x2="98.05" y2="80.26"/><line class="cls-1" x1="81.77" y1="74.69" x2="98.05" y2="80.26"/><line class="cls-1" x1="87.1" y1="69.25" x2="98.05" y2="80.26"/><line class="cls-1" x1="103.44" y1="69.08" x2="98.05" y2="80.26"/><line class="cls-1" x1="103.51" y1="96.8" x2="98.05" y2="80.26"/><line class="cls-1" x1="114.33" y1="63.61" x2="97.95" y2="52.55"/><line class="cls-1" x1="114.33" y1="63.61" x2="114.38" y2="52.61"/><line class="cls-1" x1="114.33" y1="63.61" x2="130.66" y2="58.16"/><line class="cls-1" x1="114.33" y1="63.61" x2="114.34" y2="69.16"/><line class="cls-1" x1="114.33" y1="63.61" x2="103.44" y2="69.08"/><line class="cls-1" x1="97.95" y1="52.55" x2="103.44" y2="69.08"/><line class="cls-1" x1="87.1" y1="69.25" x2="103.44" y2="69.08"/><line class="cls-1" x1="87.1" y1="69.25" x2="81.6" y2="80.31"/><line class="cls-1" x1="87.1" y1="69.25" x2="76.2" y2="58.19"/><line class="cls-1" x1="81.77" y1="74.69" x2="76.2" y2="58.19"/><line class="cls-1" x1="81.77" y1="74.69" x2="65.4" y2="74.69"/><line class="cls-1" x1="81.77" y1="74.69" x2="81.6" y2="80.31"/><line class="cls-1" x1="65.4" y1="74.69" x2="81.6" y2="80.31"/><line class="cls-1" x1="65.4" y1="74.69" x2="65.42" y2="63.7"/><line class="cls-1" x1="65.4" y1="74.69" x2="38.05" y2="63.7"/><line class="cls-1" x1="65.4" y1="74.69" x2="43.55" y2="80.26"/><line class="cls-1" x1="38.05" y1="63.7" x2="43.55" y2="80.26"/><line class="cls-1" x1="38.05" y1="63.7" x2="38.15" y2="80.31"/><line class="cls-1" x1="38.05" y1="63.7" x2="32.69" y2="58.19"/><line class="cls-1" x1="38.05" y1="63.7" x2="49.07" y2="52.61"/><line class="cls-1" x1="38.05" y1="63.7" x2="21.82" y2="74.69"/><line class="cls-1" x1="38.05" y1="63.7" x2="27.15" y2="47.46"/><line class="cls-1" x1="38.05" y1="63.7" x2="16.35" y2="47.18"/><line class="cls-1" x1="38.05" y1="63.7" x2="43.71" y2="47.18"/><line class="cls-1" x1="32.69" y1="58.19" x2="38.15" y2="80.31"/><line class="cls-1" x1="32.69" y1="58.19" x2="21.82" y2="74.69"/><line class="cls-1" x1="32.69" y1="58.19" x2="16.32" y2="85.76"/><line class="cls-1" x1="32.69" y1="58.19" x2="16.35" y2="47.18"/><line class="cls-1" x1="32.69" y1="58.19" x2="27.26" y2="47.18"/><line class="cls-1" x1="32.69" y1="58.19" x2="43.91" y2="47.18"/><line class="cls-1" x1="32.69" y1="58.19" x2="49.21" y2="52.68"/><line class="cls-1" x1="32.69" y1="58.19" x2="32.69" y2="36.09"/><line class="cls-1" x1="27.15" y1="47.05" x2="32.69" y2="36.09"/><line class="cls-1" x1="16.35" y1="47.18" x2="32.69" y2="36.09"/><line class="cls-1" x1="54.61" y1="35.94" x2="32.69" y2="36.09"/><line class="cls-1" x1="54.61" y1="35.94" x2="43.91" y2="47.18"/><line class="cls-1" x1="49.07" y1="30.44" x2="43.91" y2="47.18"/><line class="cls-1" x1="49.07" y1="30.44" x2="48.99" y2="52.68"/><line class="cls-1" x1="27.35" y1="47.35" x2="48.99" y2="52.68"/><line class="cls-1" x1="43.71" y1="47.37" x2="48.99" y2="52.68"/><line class="cls-1" x1="65.31" y1="47.1" x2="48.99" y2="52.68"/><line class="cls-1" x1="65.31" y1="47.1" x2="54.61" y2="35.94"/><line class="cls-1" x1="49.07" y1="30.44" x2="54.61" y2="35.94"/><line class="cls-1" x1="49.07" y1="30.44" x2="70.73" y2="24.95"/><line class="cls-1" x1="54.61" y1="35.94" x2="70.73" y2="24.95"/><line class="cls-1" x1="59.93" y1="19.56" x2="70.73" y2="24.95"/><line class="cls-1" x1="65.31" y1="13.96" x2="70.73" y2="24.95"/><line class="cls-1" x1="81.68" y1="13.96" x2="70.73" y2="24.95"/><line class="cls-1" x1="87.17" y1="36.09" x2="70.73" y2="24.95"/><line class="cls-1" x1="76.27" y1="2.86" x2="70.73" y2="24.95"/><line class="cls-1" x1="65.31" y1="13.96" x2="65.42" y2="36.3"/><line class="cls-1" x1="65.31" y1="13.96" x2="81.68" y2="13.96"/><line class="cls-1" x1="59.93" y1="19.56" x2="81.68" y2="13.96"/><line class="cls-1" x1="59.93" y1="19.56" x2="65.42" y2="36.3"/><line class="cls-1" x1="59.93" y1="19.56" x2="54.52" y2="36.04"/><line class="cls-1" x1="87.17" y1="36.09" x2="70.73" y2="24.95"/><line class="cls-1" x1="87.17" y1="36.09" x2="70.73" y2="47.18"/><line class="cls-1" x1="65.42" y1="36.3" x2="70.73" y2="47.18"/><line class="cls-1" x1="76.2" y1="58.19" x2="70.73" y2="47.18"/><line class="cls-1" x1="65.42" y1="58.19" x2="70.73" y2="47.18"/><line class="cls-1" x1="59.88" y1="58.07" x2="70.73" y2="47.18"/><line class="cls-1" x1="59.88" y1="58.07" x2="65.31" y2="47.1"/><line class="cls-1" x1="59.88" y1="58.07" x2="65.42" y2="63.7"/><line class="cls-1" x1="65.42" y1="58.19" x2="65.42" y2="63.7"/><line class="cls-1" x1="70.73" y1="47.18" x2="65.42" y2="63.7"/><line class="cls-1" x1="76.2" y1="58.19" x2="65.31" y2="47.1"/><line class="cls-1" x1="76.2" y1="58.19" x2="81.66" y2="47.18"/><line class="cls-1" x1="76.2" y1="58.19" x2="87.08" y2="47.18"/><line class="cls-1" x1="76.2" y1="58.19" x2="92.6" y2="47.05"/><line class="cls-1" x1="65.42" y1="58.19" x2="48.99" y2="52.68"/><line class="cls-1" x1="65.42" y1="58.19" x2="65.31" y2="47.1"/><line class="cls-1" x1="97.95" y1="52.55" x2="92.6" y2="47.05"/><line class="cls-1" x1="97.95" y1="52.55" x2="81.66" y2="47.18"/><line class="cls-1" x1="97.95" y1="52.55" x2="87.08" y2="47.18"/><line class="cls-1" x1="87.17" y1="36.09" x2="87.08" y2="47.18"/><line class="cls-1" x1="87.17" y1="36.09" x2="92.6" y2="47.05"/><line class="cls-1" x1="87.03" y1="36.11" x2="81.52" y2="47.19"/><line class="cls-1" x1="87.03" y1="36.11" x2="87.1" y2="30.49"/><line class="cls-1" x1="92.6" y1="47.05" x2="87.1" y2="30.49"/><line class="cls-1" x1="81.66" y1="47.18" x2="87.1" y2="30.49"/><line class="cls-1" x1="103.56" y1="13.96" x2="87.1" y2="30.49"/><line class="cls-1" x1="103.56" y1="13.96" x2="76.27" y2="2.86"/><line class="cls-1" x1="87.08" y1="8.42" x2="76.27" y2="2.86"/><line class="cls-1" x1="130.66" y1="8.32" x2="76.27" y2="2.86"/><line class="cls-1" x1="130.66" y1="8.32" x2="114.31" y2="19.41"/><line class="cls-1" x1="130.66" y1="8.32" x2="114.38" y2="25.02"/><line class="cls-1" x1="130.66" y1="8.32" x2="125.24" y2="30.52"/><line class="cls-1" x1="130.66" y1="8.32" x2="130.71" y2="19.56"/><line class="cls-1" x1="130.66" y1="8.32" x2="136.2" y2="19.56"/><line class="cls-1" x1="38.15" y1="80.31" x2="21.82" y2="74.69"/><line class="cls-1" x1="43.55" y1="80.26" x2="21.82" y2="74.69"/><line class="cls-1" x1="38.15" y1="80.31" x2="43.55" y2="80.26"/><line class="cls-1" x1="114.34" y1="69.16" x2="130.66" y2="58.16"/><line class="cls-1" x1="114.34" y1="69.16" x2="103.44" y2="69.08"/><line class="cls-1" x1="119.79" y1="41.65" x2="114.38" y2="52.61"/><line class="cls-1" x1="119.79" y1="41.65" x2="130.66" y2="58.16"/><line class="cls-1" x1="119.79" y1="41.65" x2="141.6" y2="52.55"/><line class="cls-1" x1="119.79" y1="41.65" x2="141.6" y2="47.12"/><line class="cls-1" x1="119.79" y1="41.65" x2="130.66" y2="36.06"/><line class="cls-1" x1="119.79" y1="41.65" x2="125.24" y2="30.52"/><line class="cls-1" x1="119.79" y1="41.65" x2="130.71" y2="25.02"/><line class="cls-1" x1="119.79" y1="41.65" x2="114.38" y2="30.52"/><line class="cls-1" x1="119.79" y1="41.65" x2="114.38" y2="25.02"/><line class="cls-1" x1="141.6" y1="52.55" x2="130.66" y2="36.06"/><line class="cls-1" x1="141.6" y1="47.12" x2="130.66" y2="36.06"/><line class="cls-1" x1="114.38" y1="30.52" x2="130.66" y2="36.06"/><line class="cls-1" x1="125.24" y1="30.52" x2="130.66" y2="36.06"/><line class="cls-1" x1="130.71" y1="25.02" x2="130.66" y2="36.06"/><line class="cls-1" x1="141.6" y1="47.12" x2="130.66" y2="58.16"/><line class="cls-1" x1="141.6" y1="47.12" x2="157.9" y2="58.07"/><line class="cls-1" x1="141.6" y1="47.12" x2="157.87" y2="47.18"/><line class="cls-1" x1="141.6" y1="52.55" x2="157.87" y2="47.18"/><line class="cls-1" x1="141.6" y1="52.55" x2="157.9" y2="58.07"/><line class="cls-1" x1="157.87" y1="47.18" x2="157.9" y2="58.07"/><line class="cls-1" x1="157.87" y1="47.18" x2="163.26" y2="63.63"/><line class="cls-1" x1="157.87" y1="47.18" x2="168.67" y2="58.16"/><line class="cls-1" x1="157.87" y1="47.18" x2="152.38" y2="24.95"/><line class="cls-1" x1="157.87" y1="47.18" x2="141.6" y2="36.06"/><line class="cls-1" x1="157.87" y1="47.18" x2="163.26" y2="19.41"/><line class="cls-1" x1="157.87" y1="47.18" x2="179.65" y2="36.06"/><line class="cls-1" x1="174.25" y1="47.12" x2="157.9" y2="58.07"/><line class="cls-1" x1="168.67" y1="58.16" x2="157.9" y2="58.07"/><line class="cls-1" x1="163.26" y1="63.63" x2="157.9" y2="58.07"/><line class="cls-1" x1="163.26" y1="63.63" x2="174.25" y2="47.12"/><line class="cls-1" x1="168.67" y1="58.16" x2="174.25" y2="47.12"/><line class="cls-1" x1="163.26" y1="19.41" x2="174.25" y2="47.12"/><line class="cls-1" x1="174.25" y1="47.12" x2="185.07" y2="47.12"/><line class="cls-1" x1="168.67" y1="58.16" x2="190.38" y2="52.56"/><line class="cls-1" x1="179.65" y1="36.06" x2="157.87" y2="19.41"/><line class="cls-1" x1="152.38" y1="24.95" x2="157.87" y2="19.41"/><line class="cls-1" x1="152.38" y1="24.95" x2="163.26" y2="19.41"/><line class="cls-1" x1="152.38" y1="24.95" x2="141.6" y2="36.06"/><line class="cls-1" x1="152.38" y1="24.95" x2="136.2" y2="19.56"/><line class="cls-1" x1="152.38" y1="24.95" x2="130.71" y2="19.56"/><line class="cls-1" x1="163.26" y1="19.41" x2="130.71" y2="19.56"/><line class="cls-1" x1="125.24" y1="30.52" x2="130.71" y2="19.56"/><line class="cls-1" x1="114.31" y1="19.41" x2="130.71" y2="19.56"/><line class="cls-1" x1="114.38" y1="25.02" x2="130.71" y2="19.56"/><line class="cls-1" x1="114.38" y1="25.02" x2="125.24" y2="30.52"/><line class="cls-1" x1="114.38" y1="25.02" x2="152.38" y2="24.95"/><line class="cls-1" x1="114.38" y1="25.02" x2="108.91" y2="19.41"/><line class="cls-1" x1="141.6" y1="36.06" x2="125.24" y2="30.52"/><line class="cls-1" x1="141.6" y1="36.06" x2="130.71" y2="25.02"/><line class="cls-1" x1="141.6" y1="36.06" x2="136.2" y2="19.56"/><line class="cls-1" x1="130.71" y1="25.02" x2="136.2" y2="19.56"/><line class="cls-1" x1="130.71" y1="25.02" x2="114.31" y2="19.41"/><line class="cls-1" x1="130.71" y1="25.02" x2="108.91" y2="19.41"/><line class="cls-1" x1="130.71" y1="25.02" x2="114.38" y2="30.52"/><line class="cls-1" x1="108.91" y1="19.41" x2="114.38" y2="30.52"/><line class="cls-1" x1="103.56" y1="13.96" x2="114.38" y2="30.52"/><line class="cls-1" x1="103.56" y1="13.96" x2="114.31" y2="19.41"/><line class="cls-1" x1="103.56" y1="13.96" x2="108.91" y2="19.41"/><line class="cls-1" x1="125.24" y1="30.52" x2="108.91" y2="19.41"/><line class="cls-1" x1="125.24" y1="30.52" x2="114.31" y2="19.41"/><circle class="cls-2" cx="16.35" cy="47.18" r="2.72"/><path class="cls-2" d="M16.35,44.78A2.39,2.39,0,1,1,14,47.18a2.39,2.39,0,0,1,2.39-2.39m0-.65a3,3,0,1,0,3,3,3,3,0,0,0-3-3Z"/><path class="cls-3" d="M16.35,45.32a1.85,1.85,0,1,1-1.85,1.85,1.85,1.85,0,0,1,1.85-1.85m0-.54a2.39,2.39,0,1,0,2.39,2.39,2.39,2.39,0,0,0-2.39-2.39Z"/><circle class="cls-2" cx="43.71" cy="47.18" r="2.72"/><path class="cls-2" d="M43.71,44.78a2.39,2.39,0,1,1-2.39,2.39,2.39,2.39,0,0,1,2.39-2.39m0-.65a3,3,0,1,0,3,3,3,3,0,0,0-3-3Z"/><path class="cls-3" d="M43.71,45.32a1.85,1.85,0,1,1-1.85,1.85,1.85,1.85,0,0,1,1.85-1.85m0-.54a2.39,2.39,0,1,0,2.39,2.39,2.39,2.39,0,0,0-2.39-2.39Z"/><circle class="cls-2" cx="49.07" cy="52.61" r="2.72"/><path class="cls-2" d="M49.07,50.22a2.39,2.39,0,1,1-2.39,2.39,2.39,2.39,0,0,1,2.39-2.39m0-.65a3,3,0,1,0,3,3,3,3,0,0,0-3-3Z"/><path class="cls-3" d="M49.07,50.76a1.85,1.85,0,1,1-1.85,1.85,1.85,1.85,0,0,1,1.85-1.85m0-.54a2.39,2.39,0,1,0,2.39,2.39,2.39,2.39,0,0,0-2.39-2.39Z"/><circle class="cls-2" cx="54.61" cy="35.98" r="2.72"/><path class="cls-2" d="M54.61,33.59A2.39,2.39,0,1,1,52.22,36a2.39,2.39,0,0,1,2.39-2.39m0-.65a3,3,0,1,0,3,3,3,3,0,0,0-3-3Z"/><path class="cls-3" d="M54.61,34.13A1.85,1.85,0,1,1,52.76,36a1.85,1.85,0,0,1,1.85-1.85m0-.54A2.39,2.39,0,1,0,57,36a2.39,2.39,0,0,0-2.39-2.39Z"/><circle class="cls-2" cx="49.07" cy="30.44" r="2.72"/><path class="cls-2" d="M49.07,28a2.39,2.39,0,1,1-2.39,2.39A2.39,2.39,0,0,1,49.07,28m0-.65a3,3,0,1,0,3,3,3,3,0,0,0-3-3Z"/><path class="cls-3" d="M49.07,28.59a1.85,1.85,0,1,1-1.85,1.85,1.85,1.85,0,0,1,1.85-1.85m0-.54a2.39,2.39,0,1,0,2.39,2.39A2.39,2.39,0,0,0,49.07,28Z"/><circle class="cls-2" cx="38.05" cy="63.7" r="2.72"/><path class="cls-2" d="M38.05,61.31a2.39,2.39,0,1,1-2.39,2.39,2.39,2.39,0,0,1,2.39-2.39m0-.65a3,3,0,1,0,3,3,3,3,0,0,0-3-3Z"/><path class="cls-3" d="M38.05,61.85A1.85,1.85,0,1,1,36.2,63.7a1.85,1.85,0,0,1,1.85-1.85m0-.54a2.39,2.39,0,1,0,2.39,2.39,2.39,2.39,0,0,0-2.39-2.39Z"/><circle class="cls-2" cx="32.69" cy="58.19" r="2.72"/><path class="cls-2" d="M32.69,55.8a2.39,2.39,0,1,1-2.39,2.39,2.39,2.39,0,0,1,2.39-2.39m0-.65a3,3,0,1,0,3,3,3,3,0,0,0-3-3Z"/><path class="cls-3" d="M32.69,56.34a1.85,1.85,0,1,1-1.85,1.85,1.85,1.85,0,0,1,1.85-1.85m0-.54a2.39,2.39,0,1,0,2.39,2.39,2.39,2.39,0,0,0-2.39-2.39Z"/><circle class="cls-2" cx="27.15" cy="47.1" r="3.5"/><path class="cls-2" d="M27.15,44a3.08,3.08,0,1,1-3.08,3.08A3.08,3.08,0,0,1,27.15,44m0-.84a3.92,3.92,0,1,0,3.92,3.92,3.92,3.92,0,0,0-3.92-3.92Z"/><path class="cls-3" d="M27.15,44.72a2.39,2.39,0,1,1-2.39,2.39,2.39,2.39,0,0,1,2.39-2.39m0-.7a3.08,3.08,0,1,0,3.08,3.08A3.08,3.08,0,0,0,27.15,44Z"/><circle class="cls-2" cx="21.82" cy="74.72" r="3.88"/><path class="cls-2" d="M21.82,71.29a3.42,3.42,0,1,1-3.42,3.42,3.42,3.42,0,0,1,3.42-3.42m0-.9a4.33,4.33,0,1,0,4.33,4.33,4.33,4.33,0,0,0-4.33-4.33Z"/><path class="cls-3" d="M21.82,72a2.67,2.67,0,1,1-2.67,2.67A2.68,2.68,0,0,1,21.82,72m0-.75a3.42,3.42,0,1,0,3.42,3.42,3.42,3.42,0,0,0-3.42-3.42Z"/><circle class="cls-2" cx="16.32" cy="85.76" r="3.88"/><path class="cls-2" d="M16.32,82.33a3.42,3.42,0,1,1-3.42,3.42,3.42,3.42,0,0,1,3.42-3.42m0-.9a4.33,4.33,0,1,0,4.33,4.33,4.33,4.33,0,0,0-4.33-4.33Z"/><path class="cls-3" d="M16.32,83.09a2.67,2.67,0,1,1-2.67,2.67,2.68,2.68,0,0,1,2.67-2.67m0-.75a3.42,3.42,0,1,0,3.42,3.42,3.42,3.42,0,0,0-3.42-3.42Z"/><circle class="cls-2" cx="32.71" cy="91.25" r="3.88"/><path class="cls-2" d="M32.71,87.83a3.42,3.42,0,1,1-3.42,3.42,3.42,3.42,0,0,1,3.42-3.42m0-.9A4.33,4.33,0,1,0,37,91.25a4.33,4.33,0,0,0-4.33-4.33Z"/><path class="cls-3" d="M32.71,88.58A2.67,2.67,0,1,1,30,91.25a2.68,2.68,0,0,1,2.67-2.67m0-.75a3.42,3.42,0,1,0,3.42,3.42,3.42,3.42,0,0,0-3.42-3.42Z"/><circle class="cls-2" cx="70.83" cy="24.95" r="3.88"/><path class="cls-2" d="M70.83,21.53A3.42,3.42,0,1,1,67.4,25a3.42,3.42,0,0,1,3.42-3.42m0-.9A4.33,4.33,0,1,0,75.15,25a4.33,4.33,0,0,0-4.33-4.33Z"/><path class="cls-3" d="M70.83,22.28A2.67,2.67,0,1,1,68.15,25a2.68,2.68,0,0,1,2.67-2.67m0-.75A3.42,3.42,0,1,0,74.25,25a3.42,3.42,0,0,0-3.42-3.42Z"/><circle class="cls-2" cx="119.79" cy="41.65" r="3.88"/><path class="cls-2" d="M119.79,38.23a3.42,3.42,0,1,1-3.42,3.42,3.42,3.42,0,0,1,3.42-3.42m0-.9a4.33,4.33,0,1,0,4.33,4.33,4.33,4.33,0,0,0-4.33-4.33Z"/><path class="cls-3" d="M119.79,39a2.67,2.67,0,1,1-2.67,2.67A2.68,2.68,0,0,1,119.79,39m0-.75a3.42,3.42,0,1,0,3.42,3.42,3.42,3.42,0,0,0-3.42-3.42Z"/><circle class="cls-4" cx="130.66" cy="58.07" r="3.88"/><path class="cls-4" d="M130.66,54.64a3.42,3.42,0,1,1-3.42,3.42,3.42,3.42,0,0,1,3.42-3.42m0-.9A4.33,4.33,0,1,0,135,58.07a4.33,4.33,0,0,0-4.33-4.33Z"/><path class="cls-3" d="M130.66,55.39A2.67,2.67,0,1,1,128,58.07a2.68,2.68,0,0,1,2.67-2.67m0-.75a3.42,3.42,0,1,0,3.42,3.42,3.42,3.42,0,0,0-3.42-3.42Z"/><circle class="cls-2" cx="179.7" cy="35.97" r="3.88"/><path class="cls-2" d="M179.7,32.54A3.42,3.42,0,1,1,176.27,36a3.42,3.42,0,0,1,3.42-3.42m0-.9A4.33,4.33,0,1,0,184,36a4.33,4.33,0,0,0-4.33-4.33Z"/><path class="cls-3" d="M179.7,33.29A2.67,2.67,0,1,1,177,36a2.68,2.68,0,0,1,2.67-2.67m0-.75A3.42,3.42,0,1,0,183.12,36a3.42,3.42,0,0,0-3.42-3.42Z"/><circle class="cls-4" cx="206.84" cy="63.61" r="3.88"/><path class="cls-4" d="M206.84,60.19a3.42,3.42,0,1,1-3.42,3.42,3.42,3.42,0,0,1,3.42-3.42m0-.9a4.33,4.33,0,1,0,4.33,4.33,4.33,4.33,0,0,0-4.33-4.33Z"/><path class="cls-3" d="M206.84,60.94a2.67,2.67,0,1,1-2.67,2.67,2.68,2.68,0,0,1,2.67-2.67m0-.75a3.42,3.42,0,1,0,3.42,3.42,3.42,3.42,0,0,0-3.42-3.42Z"/><circle class="cls-2" cx="195.9" cy="85.71" r="3.88"/><path class="cls-2" d="M195.9,82.29a3.42,3.42,0,1,1-3.42,3.42,3.42,3.42,0,0,1,3.42-3.42m0-.9a4.33,4.33,0,1,0,4.33,4.33,4.33,4.33,0,0,0-4.33-4.33Z"/><path class="cls-3" d="M195.9,83a2.67,2.67,0,1,1-2.67,2.67A2.68,2.68,0,0,1,195.9,83m0-.75a3.42,3.42,0,1,0,3.42,3.42,3.42,3.42,0,0,0-3.42-3.42Z"/><circle class="cls-4" cx="185.17" cy="102.34" r="3.88"/><path class="cls-4" d="M185.17,98.91a3.42,3.42,0,1,1-3.42,3.42,3.42,3.42,0,0,1,3.42-3.42m0-.9a4.33,4.33,0,1,0,4.33,4.33A4.33,4.33,0,0,0,185.17,98Z"/><path class="cls-3" d="M185.17,99.67a2.67,2.67,0,1,1-2.67,2.67,2.68,2.68,0,0,1,2.67-2.67m0-.75a3.42,3.42,0,1,0,3.42,3.42,3.42,3.42,0,0,0-3.42-3.42Z"/><circle class="cls-2" cx="190.57" cy="113.35" r="3.88"/><path class="cls-2" d="M190.57,109.93a3.42,3.42,0,1,1-3.42,3.42,3.42,3.42,0,0,1,3.42-3.42m0-.9a4.33,4.33,0,1,0,4.33,4.33,4.33,4.33,0,0,0-4.33-4.33Z"/><path class="cls-3" d="M190.57,110.68a2.67,2.67,0,1,1-2.67,2.67,2.68,2.68,0,0,1,2.67-2.67m0-.75a3.42,3.42,0,1,0,3.42,3.42,3.42,3.42,0,0,0-3.42-3.42Z"/><circle class="cls-2" cx="65.35" cy="107.84" r="3.88"/><path class="cls-2" d="M65.35,104.41a3.42,3.42,0,1,1-3.42,3.42,3.42,3.42,0,0,1,3.42-3.42m0-.9a4.33,4.33,0,1,0,4.33,4.33,4.33,4.33,0,0,0-4.33-4.33Z"/><path class="cls-3" d="M65.35,105.16a2.67,2.67,0,1,1-2.67,2.67,2.68,2.68,0,0,1,2.67-2.67m0-.75a3.42,3.42,0,1,0,3.42,3.42,3.42,3.42,0,0,0-3.42-3.42Z"/><circle class="cls-2" cx="81.6" cy="113.33" r="3.88"/><path class="cls-2" d="M81.6,109.91a3.42,3.42,0,1,1-3.42,3.42,3.42,3.42,0,0,1,3.42-3.42m0-.9a4.33,4.33,0,1,0,4.33,4.33A4.33,4.33,0,0,0,81.6,109Z"/><path class="cls-3" d="M81.6,110.66a2.67,2.67,0,1,1-2.67,2.67,2.68,2.68,0,0,1,2.67-2.67m0-.75A3.42,3.42,0,1,0,85,113.33a3.42,3.42,0,0,0-3.42-3.42Z"/><circle class="cls-2" cx="92.6" cy="118.87" r="3.88"/><path class="cls-2" d="M92.6,115.45a3.42,3.42,0,1,1-3.42,3.42,3.42,3.42,0,0,1,3.42-3.42m0-.9a4.33,4.33,0,1,0,4.33,4.33,4.33,4.33,0,0,0-4.33-4.33Z"/><path class="cls-3" d="M92.6,116.2a2.67,2.67,0,1,1-2.67,2.67,2.68,2.68,0,0,1,2.67-2.67m0-.75A3.42,3.42,0,1,0,96,118.87a3.42,3.42,0,0,0-3.42-3.42Z"/><circle class="cls-4" cx="136.09" cy="91.23" r="3.88"/><path class="cls-4" d="M136.09,87.81a3.42,3.42,0,1,1-3.42,3.42,3.42,3.42,0,0,1,3.42-3.42m0-.9a4.33,4.33,0,1,0,4.33,4.33,4.33,4.33,0,0,0-4.33-4.33Z"/><path class="cls-3" d="M136.09,88.56a2.67,2.67,0,1,1-2.67,2.67,2.68,2.68,0,0,1,2.67-2.67m0-.75a3.42,3.42,0,1,0,3.42,3.42,3.42,3.42,0,0,0-3.42-3.42Z"/><circle class="cls-2" cx="70.8" cy="91.21" r="2.57"/><path class="cls-2" d="M70.8,88.93a2.28,2.28,0,1,1-2.28,2.28,2.28,2.28,0,0,1,2.28-2.28m0-.6a2.87,2.87,0,1,0,2.87,2.87,2.88,2.88,0,0,0-2.87-2.87Z"/><path class="cls-3" d="M70.8,89.43A1.78,1.78,0,1,1,69,91.21a1.78,1.78,0,0,1,1.78-1.78m0-.5a2.28,2.28,0,1,0,2.28,2.28,2.28,2.28,0,0,0-2.28-2.28Z"/><circle class="cls-2" cx="76.2" cy="102.39" r="2.57"/><path class="cls-2" d="M76.2,100.11a2.28,2.28,0,1,1-2.28,2.28,2.28,2.28,0,0,1,2.28-2.28m0-.6a2.87,2.87,0,1,0,2.87,2.87,2.88,2.88,0,0,0-2.87-2.87Z"/><path class="cls-3" d="M76.2,100.61a1.78,1.78,0,1,1-1.78,1.78,1.78,1.78,0,0,1,1.78-1.78m0-.5a2.28,2.28,0,1,0,2.28,2.28,2.28,2.28,0,0,0-2.28-2.28Z"/><circle class="cls-2" cx="81.65" cy="96.8" r="2.57"/><path class="cls-2" d="M81.65,94.52a2.28,2.28,0,1,1-2.28,2.28,2.28,2.28,0,0,1,2.28-2.28m0-.6a2.87,2.87,0,1,0,2.87,2.87,2.88,2.88,0,0,0-2.87-2.87Z"/><path class="cls-3" d="M81.65,95a1.78,1.78,0,1,1-1.78,1.78A1.78,1.78,0,0,1,81.65,95m0-.5a2.28,2.28,0,1,0,2.28,2.28,2.28,2.28,0,0,0-2.28-2.28Z"/><circle class="cls-2" cx="98.04" cy="102.34" r="2.57"/><path class="cls-2" d="M98,100.06a2.28,2.28,0,1,1-2.28,2.28A2.28,2.28,0,0,1,98,100.06m0-.6a2.87,2.87,0,1,0,2.87,2.87A2.88,2.88,0,0,0,98,99.47Z"/><path class="cls-3" d="M98,100.56a1.78,1.78,0,1,1-1.78,1.78A1.78,1.78,0,0,1,98,100.56m0-.5a2.28,2.28,0,1,0,2.28,2.28A2.28,2.28,0,0,0,98,100.06Z"/><circle class="cls-2" cx="114.34" cy="113.38" r="2.57"/><path class="cls-2" d="M114.34,111.1a2.28,2.28,0,1,1-2.28,2.28,2.28,2.28,0,0,1,2.28-2.28m0-.6a2.87,2.87,0,1,0,2.87,2.87,2.88,2.88,0,0,0-2.87-2.87Z"/><path class="cls-3" d="M114.34,111.6a1.78,1.78,0,1,1-1.78,1.78,1.78,1.78,0,0,1,1.78-1.78m0-.5a2.28,2.28,0,1,0,2.28,2.28,2.28,2.28,0,0,0-2.28-2.28Z"/><circle class="cls-2" cx="119.79" cy="118.87" r="2.57"/><path class="cls-2" d="M119.79,116.6a2.28,2.28,0,1,1-2.28,2.28,2.28,2.28,0,0,1,2.28-2.28m0-.6a2.87,2.87,0,1,0,2.87,2.87,2.88,2.88,0,0,0-2.87-2.87Z"/><path class="cls-3" d="M119.79,117.1a1.78,1.78,0,1,1-1.78,1.78,1.78,1.78,0,0,1,1.78-1.78m0-.5a2.28,2.28,0,1,0,2.28,2.28,2.28,2.28,0,0,0-2.28-2.28Z"/><circle class="cls-2" cx="119.79" cy="129.91" r="2.57"/><path class="cls-2" d="M119.79,127.64a2.28,2.28,0,1,1-2.28,2.28,2.28,2.28,0,0,1,2.28-2.28m0-.6a2.87,2.87,0,1,0,2.87,2.87,2.88,2.88,0,0,0-2.87-2.87Z"/><path class="cls-3" d="M119.79,128.14a1.78,1.78,0,1,1-1.78,1.78,1.78,1.78,0,0,1,1.78-1.78m0-.5a2.28,2.28,0,1,0,2.28,2.28,2.28,2.28,0,0,0-2.28-2.28Z"/><circle class="cls-2" cx="136.13" cy="174.11" r="2.57"/><path class="cls-2" d="M136.13,171.84a2.28,2.28,0,1,1-2.28,2.28,2.28,2.28,0,0,1,2.28-2.28m0-.6a2.87,2.87,0,1,0,2.87,2.87,2.88,2.88,0,0,0-2.87-2.87Z"/><path class="cls-3" d="M136.13,172.34a1.78,1.78,0,1,1-1.78,1.78,1.78,1.78,0,0,1,1.78-1.78m0-.5a2.28,2.28,0,1,0,2.28,2.28,2.28,2.28,0,0,0-2.28-2.28Z"/><circle class="cls-2" cx="103.49" cy="96.75" r="2.57"/><path class="cls-2" d="M103.49,94.47a2.28,2.28,0,1,1-2.28,2.28,2.28,2.28,0,0,1,2.28-2.28m0-.6a2.87,2.87,0,1,0,2.87,2.87,2.88,2.88,0,0,0-2.87-2.87Z"/><path class="cls-3" d="M103.49,95a1.78,1.78,0,1,1-1.78,1.78A1.78,1.78,0,0,1,103.49,95m0-.5a2.28,2.28,0,1,0,2.28,2.28,2.28,2.28,0,0,0-2.28-2.28Z"/><circle class="cls-2" cx="119.77" cy="80.26" r="2.57"/><path class="cls-2" d="M119.77,78a2.28,2.28,0,1,1-2.28,2.28A2.28,2.28,0,0,1,119.77,78m0-.6a2.87,2.87,0,1,0,2.87,2.87,2.88,2.88,0,0,0-2.87-2.87Z"/><path class="cls-3" d="M119.77,78.49A1.78,1.78,0,1,1,118,80.26a1.78,1.78,0,0,1,1.78-1.78m0-.5A2.28,2.28,0,1,0,122,80.26,2.28,2.28,0,0,0,119.77,78Z"/><circle class="cls-2" cx="108.89" cy="80.26" r="2.57"/><path class="cls-2" d="M108.89,78a2.28,2.28,0,1,1-2.28,2.28A2.28,2.28,0,0,1,108.89,78m0-.6a2.87,2.87,0,1,0,2.87,2.87,2.88,2.88,0,0,0-2.87-2.87Z"/><path class="cls-3" d="M108.89,78.49a1.78,1.78,0,1,1-1.78,1.78,1.78,1.78,0,0,1,1.78-1.78m0-.5a2.28,2.28,0,1,0,2.28,2.28A2.28,2.28,0,0,0,108.89,78Z"/><circle class="cls-2" cx="98.02" cy="80.26" r="2.57"/><path class="cls-2" d="M98,78a2.28,2.28,0,1,1-2.28,2.28A2.28,2.28,0,0,1,98,78m0-.6a2.87,2.87,0,1,0,2.87,2.87A2.88,2.88,0,0,0,98,77.39Z"/><path class="cls-3" d="M98,78.49a1.78,1.78,0,1,1-1.78,1.78A1.78,1.78,0,0,1,98,78.49m0-.5a2.28,2.28,0,1,0,2.28,2.28A2.28,2.28,0,0,0,98,78Z"/><circle class="cls-4" cx="87.15" cy="69.25" r="2.57"/><path class="cls-4" d="M87.15,67a2.28,2.28,0,1,1-2.28,2.28A2.28,2.28,0,0,1,87.15,67m0-.6A2.87,2.87,0,1,0,90,69.25a2.88,2.88,0,0,0-2.87-2.87Z"/><path class="cls-3" d="M87.15,67.47a1.78,1.78,0,1,1-1.78,1.78,1.78,1.78,0,0,1,1.78-1.78m0-.5a2.28,2.28,0,1,0,2.28,2.28A2.28,2.28,0,0,0,87.15,67Z"/><circle class="cls-2" cx="65.4" cy="63.63" r="2.57"/><path class="cls-2" d="M65.4,61.36a2.28,2.28,0,1,1-2.28,2.28,2.28,2.28,0,0,1,2.28-2.28m0-.6a2.87,2.87,0,1,0,2.87,2.87,2.88,2.88,0,0,0-2.87-2.87Z"/><path class="cls-3" d="M65.4,61.86a1.78,1.78,0,1,1-1.78,1.78,1.78,1.78,0,0,1,1.78-1.78m0-.5a2.28,2.28,0,1,0,2.28,2.28,2.28,2.28,0,0,0-2.28-2.28Z"/><circle class="cls-2" cx="70.73" cy="47.08" r="2.57"/><path class="cls-2" d="M70.73,44.8a2.28,2.28,0,1,1-2.28,2.28,2.28,2.28,0,0,1,2.28-2.28m0-.6a2.87,2.87,0,1,0,2.87,2.87,2.88,2.88,0,0,0-2.87-2.87Z"/><path class="cls-3" d="M70.73,45.3A1.78,1.78,0,1,1,69,47.08a1.78,1.78,0,0,1,1.78-1.78m0-.5A2.28,2.28,0,1,0,73,47.08a2.28,2.28,0,0,0-2.28-2.28Z"/><circle class="cls-2" cx="97.95" cy="52.55" r="2.57"/><path class="cls-2" d="M97.95,50.27a2.28,2.28,0,1,1-2.28,2.28,2.28,2.28,0,0,1,2.28-2.28m0-.6a2.87,2.87,0,1,0,2.87,2.87,2.88,2.88,0,0,0-2.87-2.87Z"/><path class="cls-3" d="M97.95,50.77a1.78,1.78,0,1,1-1.78,1.78,1.78,1.78,0,0,1,1.78-1.78m0-.5a2.28,2.28,0,1,0,2.28,2.28,2.28,2.28,0,0,0-2.28-2.28Z"/><circle class="cls-2" cx="103.56" cy="13.89" r="2.57"/><path class="cls-2" d="M103.56,11.61a2.28,2.28,0,1,1-2.28,2.28,2.28,2.28,0,0,1,2.28-2.28m0-.6a2.87,2.87,0,1,0,2.87,2.87A2.88,2.88,0,0,0,103.56,11Z"/><path class="cls-3" d="M103.56,12.11a1.78,1.78,0,1,1-1.78,1.78,1.78,1.78,0,0,1,1.78-1.78m0-.5a2.28,2.28,0,1,0,2.28,2.28,2.28,2.28,0,0,0-2.28-2.28Z"/><circle class="cls-2" cx="125.24" cy="30.52" r="2.57"/><path class="cls-2" d="M125.24,28.24A2.28,2.28,0,1,1,123,30.52a2.28,2.28,0,0,1,2.28-2.28m0-.6a2.87,2.87,0,1,0,2.87,2.87,2.88,2.88,0,0,0-2.87-2.87Z"/><path class="cls-3" d="M125.24,28.74a1.78,1.78,0,1,1-1.78,1.78,1.78,1.78,0,0,1,1.78-1.78m0-.5a2.28,2.28,0,1,0,2.28,2.28,2.28,2.28,0,0,0-2.28-2.28Z"/><circle class="cls-2" cx="152.38" cy="24.98" r="2.57"/><path class="cls-2" d="M152.38,22.7A2.28,2.28,0,1,1,150.11,25a2.28,2.28,0,0,1,2.28-2.28m0-.6A2.87,2.87,0,1,0,155.26,25a2.88,2.88,0,0,0-2.87-2.87Z"/><path class="cls-3" d="M152.38,23.2A1.78,1.78,0,1,1,150.61,25a1.78,1.78,0,0,1,1.78-1.78m0-.5A2.28,2.28,0,1,0,154.66,25a2.28,2.28,0,0,0-2.28-2.28Z"/><circle class="cls-2" cx="130.71" cy="36.06" r="2.57"/><path class="cls-2" d="M130.71,33.79a2.28,2.28,0,1,1-2.28,2.28,2.28,2.28,0,0,1,2.28-2.28m0-.6a2.87,2.87,0,1,0,2.87,2.87,2.88,2.88,0,0,0-2.87-2.87Z"/><path class="cls-3" d="M130.71,34.29a1.78,1.78,0,1,1-1.78,1.78,1.78,1.78,0,0,1,1.78-1.78m0-.5A2.28,2.28,0,1,0,133,36.06a2.28,2.28,0,0,0-2.28-2.28Z"/><circle class="cls-2" cx="157.86" cy="58.16" r="2.57"/><path class="cls-2" d="M157.86,55.89a2.28,2.28,0,1,1-2.28,2.28,2.28,2.28,0,0,1,2.28-2.28m0-.6a2.87,2.87,0,1,0,2.87,2.87,2.88,2.88,0,0,0-2.87-2.87Z"/><path class="cls-3" d="M157.86,56.39a1.78,1.78,0,1,1-1.78,1.78,1.78,1.78,0,0,1,1.78-1.78m0-.5a2.28,2.28,0,1,0,2.28,2.28,2.28,2.28,0,0,0-2.28-2.28Z"/><circle class="cls-2" cx="190.54" cy="41.46" r="2.57"/><path class="cls-2" d="M190.54,39.19a2.28,2.28,0,1,1-2.28,2.28,2.28,2.28,0,0,1,2.28-2.28m0-.6a2.87,2.87,0,1,0,2.87,2.87,2.88,2.88,0,0,0-2.87-2.87Z"/><path class="cls-3" d="M190.54,39.69a1.78,1.78,0,1,1-1.78,1.78,1.78,1.78,0,0,1,1.78-1.78m0-.5a2.28,2.28,0,1,0,2.28,2.28,2.28,2.28,0,0,0-2.28-2.28Z"/><circle class="cls-2" cx="185.14" cy="47.08" r="2.57"/><path class="cls-2" d="M185.14,44.8a2.28,2.28,0,1,1-2.28,2.28,2.28,2.28,0,0,1,2.28-2.28m0-.6A2.87,2.87,0,1,0,188,47.08a2.88,2.88,0,0,0-2.87-2.87Z"/><path class="cls-3" d="M185.14,45.3a1.78,1.78,0,1,1-1.78,1.78,1.78,1.78,0,0,1,1.78-1.78m0-.5a2.28,2.28,0,1,0,2.28,2.28,2.28,2.28,0,0,0-2.28-2.28Z"/><circle class="cls-2" cx="190.54" cy="52.55" r="2.57"/><path class="cls-2" d="M190.54,50.27a2.28,2.28,0,1,1-2.28,2.28,2.28,2.28,0,0,1,2.28-2.28m0-.6a2.87,2.87,0,1,0,2.87,2.87,2.88,2.88,0,0,0-2.87-2.87Z"/><path class="cls-3" d="M190.54,50.77a1.78,1.78,0,1,1-1.78,1.78,1.78,1.78,0,0,1,1.78-1.78m0-.5a2.28,2.28,0,1,0,2.28,2.28,2.28,2.28,0,0,0-2.28-2.28Z"/><circle class="cls-2" cx="196.02" cy="58.16" r="2.57"/><path class="cls-2" d="M196,55.89a2.28,2.28,0,1,1-2.28,2.28A2.28,2.28,0,0,1,196,55.89m0-.6a2.87,2.87,0,1,0,2.87,2.87A2.88,2.88,0,0,0,196,55.29Z"/><path class="cls-3" d="M196,56.39a1.78,1.78,0,1,1-1.78,1.78A1.78,1.78,0,0,1,196,56.39m0-.5a2.28,2.28,0,1,0,2.28,2.28A2.28,2.28,0,0,0,196,55.89Z"/><circle class="cls-2" cx="190.54" cy="74.79" r="2.57"/><path class="cls-2" d="M190.54,72.52a2.28,2.28,0,1,1-2.28,2.28,2.28,2.28,0,0,1,2.28-2.28m0-.6a2.87,2.87,0,1,0,2.87,2.87,2.88,2.88,0,0,0-2.87-2.87Z"/><path class="cls-3" d="M190.54,73a1.78,1.78,0,1,1-1.78,1.78A1.78,1.78,0,0,1,190.54,73m0-.5a2.28,2.28,0,1,0,2.28,2.28,2.28,2.28,0,0,0-2.28-2.28Z"/><circle class="cls-2" cx="185.07" cy="69.18" r="2.57"/><path class="cls-2" d="M185.07,66.9a2.28,2.28,0,1,1-2.28,2.28,2.28,2.28,0,0,1,2.28-2.28m0-.6a2.87,2.87,0,1,0,2.87,2.87,2.88,2.88,0,0,0-2.87-2.87Z"/><path class="cls-3" d="M185.07,67.4a1.78,1.78,0,1,1-1.78,1.78,1.78,1.78,0,0,1,1.78-1.78m0-.5a2.28,2.28,0,1,0,2.28,2.28,2.28,2.28,0,0,0-2.28-2.28Z"/><circle class="cls-2" cx="163.26" cy="63.63" r="2.57"/><path class="cls-2" d="M163.26,61.36A2.28,2.28,0,1,1,161,63.63a2.28,2.28,0,0,1,2.28-2.28m0-.6a2.87,2.87,0,1,0,2.87,2.87,2.88,2.88,0,0,0-2.87-2.87Z"/><path class="cls-3" d="M163.26,61.86a1.78,1.78,0,1,1-1.78,1.78,1.78,1.78,0,0,1,1.78-1.78m0-.5a2.28,2.28,0,1,0,2.28,2.28,2.28,2.28,0,0,0-2.28-2.28Z"/><circle class="cls-2" cx="168.8" cy="58.16" r="2.57"/><path class="cls-2" d="M168.8,55.89a2.28,2.28,0,1,1-2.28,2.28,2.28,2.28,0,0,1,2.28-2.28m0-.6a2.87,2.87,0,1,0,2.87,2.87,2.88,2.88,0,0,0-2.87-2.87Z"/><path class="cls-3" d="M168.8,56.39A1.78,1.78,0,1,1,167,58.16a1.78,1.78,0,0,1,1.78-1.78m0-.5a2.28,2.28,0,1,0,2.28,2.28,2.28,2.28,0,0,0-2.28-2.28Z"/><circle class="cls-2" cx="152.45" cy="80.19" r="2.57"/><path class="cls-2" d="M152.45,77.92a2.28,2.28,0,1,1-2.28,2.28,2.28,2.28,0,0,1,2.28-2.28m0-.6a2.87,2.87,0,1,0,2.87,2.87,2.88,2.88,0,0,0-2.87-2.87Z"/><path class="cls-3" d="M152.45,78.42a1.78,1.78,0,1,1-1.78,1.78,1.78,1.78,0,0,1,1.78-1.78m0-.5a2.28,2.28,0,1,0,2.28,2.28,2.28,2.28,0,0,0-2.28-2.28Z"/><circle class="cls-2" cx="146.98" cy="85.73" r="2.57"/><path class="cls-2" d="M147,83.46a2.28,2.28,0,1,1-2.28,2.28A2.28,2.28,0,0,1,147,83.46m0-.6a2.87,2.87,0,1,0,2.87,2.87A2.88,2.88,0,0,0,147,82.86Z"/><path class="cls-3" d="M147,84a1.78,1.78,0,1,1-1.78,1.78A1.78,1.78,0,0,1,147,84m0-.5a2.28,2.28,0,1,0,2.28,2.28A2.28,2.28,0,0,0,147,83.46Z"/><circle class="cls-2" cx="157.93" cy="96.75" r="2.57"/><path class="cls-2" d="M157.93,94.47a2.28,2.28,0,1,1-2.28,2.28,2.28,2.28,0,0,1,2.28-2.28m0-.6a2.87,2.87,0,1,0,2.87,2.87,2.88,2.88,0,0,0-2.87-2.87Z"/><path class="cls-3" d="M157.93,95a1.78,1.78,0,1,1-1.78,1.78A1.78,1.78,0,0,1,157.93,95m0-.5a2.28,2.28,0,1,0,2.28,2.28,2.28,2.28,0,0,0-2.28-2.28Z"/><circle class="cls-2" cx="157.93" cy="107.91" r="2.57"/><path class="cls-2" d="M157.93,105.63a2.28,2.28,0,1,1-2.28,2.28,2.28,2.28,0,0,1,2.28-2.28m0-.6a2.87,2.87,0,1,0,2.87,2.87,2.88,2.88,0,0,0-2.87-2.87Z"/><path class="cls-3" d="M157.93,106.13a1.78,1.78,0,1,1-1.78,1.78,1.78,1.78,0,0,1,1.78-1.78m0-.5a2.28,2.28,0,1,0,2.28,2.28,2.28,2.28,0,0,0-2.28-2.28Z"/><circle class="cls-2" cx="130.64" cy="151.99" r="2.96"/><path class="cls-2" d="M130.64,149.38A2.61,2.61,0,1,1,128,152a2.61,2.61,0,0,1,2.61-2.61m0-.69a3.3,3.3,0,1,0,3.3,3.3,3.31,3.31,0,0,0-3.3-3.3Z"/><path class="cls-3" d="M130.64,150a2,2,0,1,1-2,2,2,2,0,0,1,2-2m0-.57a2.61,2.61,0,1,0,2.61,2.61,2.61,2.61,0,0,0-2.61-2.61Z"/><circle class="cls-4" cx="157.93" cy="124.46" r="2.57"/><path class="cls-4" d="M157.93,122.19a2.28,2.28,0,1,1-2.28,2.28,2.28,2.28,0,0,1,2.28-2.28m0-.6a2.87,2.87,0,1,0,2.87,2.87,2.88,2.88,0,0,0-2.87-2.87Z"/><path class="cls-3" d="M157.93,122.69a1.78,1.78,0,1,1-1.78,1.78,1.78,1.78,0,0,1,1.78-1.78m0-.5a2.28,2.28,0,1,0,2.28,2.28,2.28,2.28,0,0,0-2.28-2.28Z"/><circle class="cls-2" cx="163.33" cy="91.21" r="2.57"/><path class="cls-2" d="M163.33,88.93a2.28,2.28,0,1,1-2.28,2.28,2.28,2.28,0,0,1,2.28-2.28m0-.6a2.87,2.87,0,1,0,2.87,2.87,2.88,2.88,0,0,0-2.87-2.87Z"/><path class="cls-3" d="M163.33,89.43a1.78,1.78,0,1,1-1.78,1.78,1.78,1.78,0,0,1,1.78-1.78m0-.5a2.28,2.28,0,1,0,2.28,2.28,2.28,2.28,0,0,0-2.28-2.28Z"/><circle class="cls-2" cx="59.86" cy="19.5" r="2.57"/><path class="cls-2" d="M59.86,17.23a2.28,2.28,0,1,1-2.28,2.28,2.28,2.28,0,0,1,2.28-2.28m0-.6a2.87,2.87,0,1,0,2.87,2.87,2.88,2.88,0,0,0-2.87-2.87Z"/><path class="cls-3" d="M59.86,17.73a1.78,1.78,0,1,1-1.78,1.78,1.78,1.78,0,0,1,1.78-1.78m0-.5a2.28,2.28,0,1,0,2.28,2.28,2.28,2.28,0,0,0-2.28-2.28Z"/><circle class="cls-2" cx="65.33" cy="13.96" r="2.57"/><path class="cls-2" d="M65.33,11.69A2.28,2.28,0,1,1,63.06,14a2.28,2.28,0,0,1,2.28-2.28m0-.6A2.87,2.87,0,1,0,68.2,14a2.88,2.88,0,0,0-2.87-2.87Z"/><path class="cls-3" d="M65.33,12.18A1.78,1.78,0,1,1,63.55,14a1.78,1.78,0,0,1,1.78-1.78m0-.5A2.28,2.28,0,1,0,67.61,14a2.28,2.28,0,0,0-2.28-2.28Z"/><circle class="cls-2" cx="81.68" cy="13.96" r="2.57"/><path class="cls-2" d="M81.68,11.69A2.28,2.28,0,1,1,79.4,14a2.28,2.28,0,0,1,2.28-2.28m0-.6A2.87,2.87,0,1,0,84.55,14a2.88,2.88,0,0,0-2.87-2.87Z"/><path class="cls-3" d="M81.68,12.18A1.78,1.78,0,1,1,79.9,14a1.78,1.78,0,0,1,1.78-1.78m0-.5A2.28,2.28,0,1,0,84,14a2.28,2.28,0,0,0-2.28-2.28Z"/><circle class="cls-2" cx="76.2" cy="2.87" r="2.57"/><path class="cls-2" d="M76.2.6a2.28,2.28,0,1,1-2.28,2.28A2.28,2.28,0,0,1,76.2.6m0-.6a2.87,2.87,0,1,0,2.87,2.87A2.88,2.88,0,0,0,76.2,0Z"/><path class="cls-3" d="M76.2,1.1a1.78,1.78,0,1,1-1.78,1.78A1.78,1.78,0,0,1,76.2,1.1m0-.5a2.28,2.28,0,1,0,2.28,2.28A2.28,2.28,0,0,0,76.2.6Z"/><circle class="cls-2" cx="87.08" cy="8.42" r="2.57"/><path class="cls-2" d="M87.08,6.14A2.28,2.28,0,1,1,84.8,8.42a2.28,2.28,0,0,1,2.28-2.28m0-.6A2.87,2.87,0,1,0,90,8.42a2.88,2.88,0,0,0-2.87-2.87Z"/><path class="cls-3" d="M87.08,6.64A1.78,1.78,0,1,1,85.3,8.42a1.78,1.78,0,0,1,1.78-1.78m0-.5a2.28,2.28,0,1,0,2.28,2.28,2.28,2.28,0,0,0-2.28-2.28Z"/><circle class="cls-2" cx="125.17" cy="85.73" r="2.57"/><path class="cls-2" d="M125.17,83.46a2.28,2.28,0,1,1-2.28,2.28,2.28,2.28,0,0,1,2.28-2.28m0-.6A2.87,2.87,0,1,0,128,85.73a2.88,2.88,0,0,0-2.87-2.87Z"/><path class="cls-3" d="M125.17,84a1.78,1.78,0,1,1-1.78,1.78A1.78,1.78,0,0,1,125.17,84m0-.5a2.28,2.28,0,1,0,2.28,2.28,2.28,2.28,0,0,0-2.28-2.28Z"/><circle class="cls-2" cx="54.46" cy="80.17" r="3.47"/><path class="cls-2" d="M54.46,77.11a3.06,3.06,0,1,1-3.06,3.06,3.06,3.06,0,0,1,3.06-3.06m0-.81a3.87,3.87,0,1,0,3.87,3.87,3.87,3.87,0,0,0-3.87-3.87Z"/><path class="cls-3" d="M54.46,77.78a2.39,2.39,0,1,1-2.39,2.39,2.39,2.39,0,0,1,2.39-2.39m0-.67a3.06,3.06,0,1,0,3.06,3.06,3.06,3.06,0,0,0-3.06-3.06Z"/><circle class="cls-4" cx="65.4" cy="74.7" r="3.47"/><path class="cls-4" d="M65.4,71.63a3.06,3.06,0,1,1-3.06,3.06,3.06,3.06,0,0,1,3.06-3.06m0-.81a3.87,3.87,0,1,0,3.87,3.87,3.87,3.87,0,0,0-3.87-3.87Z"/><path class="cls-3" d="M65.4,72.31A2.39,2.39,0,1,1,63,74.7a2.39,2.39,0,0,1,2.39-2.39m0-.67a3.06,3.06,0,1,0,3.06,3.06,3.06,3.06,0,0,0-3.06-3.06Z"/><circle class="cls-2" cx="65.31" cy="35.94" r="3.47"/><path class="cls-2" d="M65.31,32.88a3.06,3.06,0,1,1-3.06,3.06,3.06,3.06,0,0,1,3.06-3.06m0-.81a3.87,3.87,0,1,0,3.87,3.87,3.87,3.87,0,0,0-3.87-3.87Z"/><path class="cls-3" d="M65.31,33.55a2.39,2.39,0,1,1-2.39,2.39,2.39,2.39,0,0,1,2.39-2.39m0-.67a3.06,3.06,0,1,0,3.06,3.06,3.06,3.06,0,0,0-3.06-3.06Z"/><circle class="cls-2" cx="76.27" cy="58.07" r="3.47"/><path class="cls-2" d="M76.27,55a3.06,3.06,0,1,1-3.06,3.06A3.06,3.06,0,0,1,76.27,55m0-.81a3.87,3.87,0,1,0,3.87,3.87,3.87,3.87,0,0,0-3.87-3.87Z"/><path class="cls-3" d="M76.27,55.68a2.39,2.39,0,1,1-2.39,2.39,2.39,2.39,0,0,1,2.39-2.39m0-.67a3.06,3.06,0,1,0,3.06,3.06A3.06,3.06,0,0,0,76.27,55Z"/><circle class="cls-2" cx="114.36" cy="52.6" r="3.47"/><path class="cls-2" d="M114.36,49.53a3.06,3.06,0,1,1-3.06,3.06,3.06,3.06,0,0,1,3.06-3.06m0-.81a3.87,3.87,0,1,0,3.87,3.87,3.87,3.87,0,0,0-3.87-3.87Z"/><path class="cls-3" d="M114.36,50.2A2.39,2.39,0,1,1,112,52.6a2.39,2.39,0,0,1,2.39-2.39m0-.67a3.06,3.06,0,1,0,3.06,3.06,3.06,3.06,0,0,0-3.06-3.06Z"/><circle class="cls-2" cx="179.67" cy="91.25" r="3.47"/><path class="cls-2" d="M179.67,88.19a3.06,3.06,0,1,1-3.06,3.06,3.06,3.06,0,0,1,3.06-3.06m0-.81a3.87,3.87,0,1,0,3.87,3.87,3.87,3.87,0,0,0-3.87-3.87Z"/><path class="cls-3" d="M179.67,88.86a2.39,2.39,0,1,1-2.39,2.39,2.39,2.39,0,0,1,2.39-2.39m0-.67a3.06,3.06,0,1,0,3.06,3.06,3.06,3.06,0,0,0-3.06-3.06Z"/><circle class="cls-2" cx="168.8" cy="124.37" r="3.47"/><path class="cls-2" d="M168.8,121.31a3.06,3.06,0,1,1-3.06,3.06,3.06,3.06,0,0,1,3.06-3.06m0-.81a3.87,3.87,0,1,0,3.87,3.87,3.87,3.87,0,0,0-3.87-3.87Z"/><path class="cls-3" d="M168.8,122a2.39,2.39,0,1,1-2.39,2.39A2.39,2.39,0,0,1,168.8,122m0-.67a3.06,3.06,0,1,0,3.06,3.06,3.06,3.06,0,0,0-3.06-3.06Z"/><circle class="cls-2" cx="152.45" cy="157.56" r="3.47"/><path class="cls-2" d="M152.45,154.49a3.06,3.06,0,1,1-3.06,3.06,3.06,3.06,0,0,1,3.06-3.06m0-.81a3.87,3.87,0,1,0,3.87,3.87,3.87,3.87,0,0,0-3.87-3.87Z"/><path class="cls-3" d="M152.45,155.17a2.39,2.39,0,1,1-2.39,2.39,2.39,2.39,0,0,1,2.39-2.39m0-.67a3.06,3.06,0,1,0,3.06,3.06,3.06,3.06,0,0,0-3.06-3.06Z"/><circle class="cls-2" cx="141.58" cy="157.48" r="3.47"/><path class="cls-2" d="M141.58,154.42a3.06,3.06,0,1,1-3.06,3.06,3.06,3.06,0,0,1,3.06-3.06m0-.81a3.87,3.87,0,1,0,3.87,3.87,3.87,3.87,0,0,0-3.87-3.87Z"/><path class="cls-3" d="M141.58,155.09a2.39,2.39,0,1,1-2.39,2.39,2.39,2.39,0,0,1,2.39-2.39m0-.67a3.06,3.06,0,1,0,3.06,3.06,3.06,3.06,0,0,0-3.06-3.06Z"/><circle class="cls-2" cx="141.65" cy="36.04" r="3.47"/><path class="cls-2" d="M141.65,33A3.06,3.06,0,1,1,138.59,36,3.06,3.06,0,0,1,141.65,33m0-.81A3.87,3.87,0,1,0,145.52,36a3.87,3.87,0,0,0-3.87-3.87Z"/><path class="cls-3" d="M141.65,33.65A2.39,2.39,0,1,1,139.26,36a2.39,2.39,0,0,1,2.39-2.39m0-.67A3.06,3.06,0,1,0,144.72,36,3.06,3.06,0,0,0,141.65,33Z"/><circle class="cls-2" cx="157.86" cy="47.05" r="3.47"/><path class="cls-2" d="M157.86,44a3.06,3.06,0,1,1-3.06,3.06A3.06,3.06,0,0,1,157.86,44m0-.81a3.87,3.87,0,1,0,3.87,3.87,3.87,3.87,0,0,0-3.87-3.87Z"/><path class="cls-3" d="M157.86,44.66a2.39,2.39,0,1,1-2.39,2.39,2.39,2.39,0,0,1,2.39-2.39m0-.67a3.06,3.06,0,1,0,3.06,3.06A3.06,3.06,0,0,0,157.86,44Z"/><circle class="cls-4" cx="174.2" cy="47.12" r="3.47"/><path class="cls-4" d="M174.2,44.06a3.06,3.06,0,1,1-3.06,3.06,3.06,3.06,0,0,1,3.06-3.06m0-.81a3.87,3.87,0,1,0,3.87,3.87,3.87,3.87,0,0,0-3.87-3.87Z"/><path class="cls-3" d="M174.2,44.73a2.39,2.39,0,1,1-2.39,2.39,2.39,2.39,0,0,1,2.39-2.39m0-.67a3.06,3.06,0,1,0,3.06,3.06,3.06,3.06,0,0,0-3.06-3.06Z"/><circle class="cls-2" cx="130.71" cy="8.32" r="3.47"/><path class="cls-2" d="M130.71,5.26a3.06,3.06,0,1,1-3.06,3.06,3.06,3.06,0,0,1,3.06-3.06m0-.81a3.87,3.87,0,1,0,3.87,3.87,3.87,3.87,0,0,0-3.87-3.87Z"/><path class="cls-3" d="M130.71,5.93a2.39,2.39,0,1,1-2.39,2.39,2.39,2.39,0,0,1,2.39-2.39m0-.67a3.06,3.06,0,1,0,3.06,3.06,3.06,3.06,0,0,0-3.06-3.06Z"/><circle class="cls-2" cx="38.15" cy="80.23" r="1.82"/><path class="cls-2" d="M38.15,78.62a1.61,1.61,0,1,1-1.61,1.61,1.61,1.61,0,0,1,1.61-1.61m0-.42a2,2,0,1,0,2,2,2,2,0,0,0-2-2Z"/><path class="cls-3" d="M38.15,79a1.26,1.26,0,1,1-1.26,1.26A1.26,1.26,0,0,1,38.15,79m0-.35a1.61,1.61,0,1,0,1.61,1.61,1.61,1.61,0,0,0-1.61-1.61Z"/><circle class="cls-2" cx="43.55" cy="80.14" r="1.82"/><path class="cls-2" d="M43.55,78.52a1.61,1.61,0,1,1-1.61,1.61,1.61,1.61,0,0,1,1.61-1.61m0-.42a2,2,0,1,0,2,2,2,2,0,0,0-2-2Z"/><path class="cls-3" d="M43.55,78.88a1.26,1.26,0,1,1-1.26,1.26,1.26,1.26,0,0,1,1.26-1.26m0-.35a1.61,1.61,0,1,0,1.61,1.61,1.61,1.61,0,0,0-1.61-1.61Z"/><circle class="cls-2" cx="65.29" cy="91.22" r="1.82"/><path class="cls-2" d="M65.29,89.61a1.61,1.61,0,1,1-1.61,1.61,1.61,1.61,0,0,1,1.61-1.61m0-.42a2,2,0,1,0,2,2,2,2,0,0,0-2-2Z"/><path class="cls-3" d="M65.29,90A1.26,1.26,0,1,1,64,91.22,1.26,1.26,0,0,1,65.29,90m0-.35a1.61,1.61,0,1,0,1.61,1.61,1.61,1.61,0,0,0-1.61-1.61Z"/><circle class="cls-2" cx="119.78" cy="107.81" r="1.82"/><path class="cls-2" d="M119.78,106.2a1.61,1.61,0,1,1-1.61,1.61,1.61,1.61,0,0,1,1.61-1.61m0-.42a2,2,0,1,0,2,2,2,2,0,0,0-2-2Z"/><path class="cls-3" d="M119.78,106.55a1.26,1.26,0,1,1-1.26,1.26,1.26,1.26,0,0,1,1.26-1.26m0-.35a1.61,1.61,0,1,0,1.61,1.61,1.61,1.61,0,0,0-1.61-1.61Z"/><circle class="cls-2" cx="103.51" cy="74.69" r="1.82"/><path class="cls-2" d="M103.51,73.08a1.61,1.61,0,1,1-1.61,1.61,1.61,1.61,0,0,1,1.61-1.61m0-.42a2,2,0,1,0,2,2,2,2,0,0,0-2-2Z"/><path class="cls-3" d="M103.51,73.44a1.26,1.26,0,1,1-1.26,1.26,1.26,1.26,0,0,1,1.26-1.26m0-.35a1.61,1.61,0,1,0,1.61,1.61,1.61,1.61,0,0,0-1.61-1.61Z"/><circle class="cls-2" cx="81.77" cy="74.69" r="1.82"/><path class="cls-2" d="M81.77,73.08a1.61,1.61,0,1,1-1.61,1.61,1.61,1.61,0,0,1,1.61-1.61m0-.42a2,2,0,1,0,2,2,2,2,0,0,0-2-2Z"/><path class="cls-3" d="M81.77,73.44a1.26,1.26,0,1,1-1.26,1.26,1.26,1.26,0,0,1,1.26-1.26m0-.35a1.61,1.61,0,1,0,1.61,1.61,1.61,1.61,0,0,0-1.61-1.61Z"/><circle class="cls-2" cx="65.35" cy="58.14" r="1.82"/><path class="cls-2" d="M65.35,56.52a1.61,1.61,0,1,1-1.61,1.61,1.61,1.61,0,0,1,1.61-1.61m0-.42a2,2,0,1,0,2,2,2,2,0,0,0-2-2Z"/><path class="cls-3" d="M65.35,56.88a1.26,1.26,0,1,1-1.26,1.26,1.26,1.26,0,0,1,1.26-1.26m0-.35A1.61,1.61,0,1,0,67,58.14a1.61,1.61,0,0,0-1.61-1.61Z"/><circle class="cls-2" cx="59.88" cy="58.14" r="1.82"/><path class="cls-2" d="M59.88,56.52a1.61,1.61,0,1,1-1.61,1.61,1.61,1.61,0,0,1,1.61-1.61m0-.42a2,2,0,1,0,2,2,2,2,0,0,0-2-2Z"/><path class="cls-3" d="M59.88,56.88a1.26,1.26,0,1,1-1.26,1.26,1.26,1.26,0,0,1,1.26-1.26m0-.35a1.61,1.61,0,1,0,1.61,1.61,1.61,1.61,0,0,0-1.61-1.61Z"/><circle class="cls-2" cx="65.42" cy="47.05" r="1.82"/><path class="cls-2" d="M65.42,45.44a1.61,1.61,0,1,1-1.61,1.61,1.61,1.61,0,0,1,1.61-1.61m0-.42a2,2,0,1,0,2,2,2,2,0,0,0-2-2Z"/><path class="cls-3" d="M65.42,45.79a1.26,1.26,0,1,1-1.26,1.26,1.26,1.26,0,0,1,1.26-1.26m0-.35A1.61,1.61,0,1,0,67,47.05a1.61,1.61,0,0,0-1.61-1.61Z"/><circle class="cls-2" cx="87.1" cy="30.49" r="1.82"/><path class="cls-2" d="M87.1,28.88a1.61,1.61,0,1,1-1.61,1.61,1.61,1.61,0,0,1,1.61-1.61m0-.42a2,2,0,1,0,2,2,2,2,0,0,0-2-2Z"/><path class="cls-3" d="M87.1,29.23a1.26,1.26,0,1,1-1.26,1.26,1.26,1.26,0,0,1,1.26-1.26m0-.35a1.61,1.61,0,1,0,1.61,1.61,1.61,1.61,0,0,0-1.61-1.61Z"/><circle class="cls-2" cx="87.17" cy="36.04" r="1.82"/><path class="cls-2" d="M87.17,34.42A1.61,1.61,0,1,1,85.55,36a1.61,1.61,0,0,1,1.61-1.61m0-.42a2,2,0,1,0,2,2,2,2,0,0,0-2-2Z"/><path class="cls-3" d="M87.17,34.78A1.26,1.26,0,1,1,85.91,36a1.26,1.26,0,0,1,1.26-1.26m0-.35A1.61,1.61,0,1,0,88.78,36a1.61,1.61,0,0,0-1.61-1.61Z"/><circle class="cls-2" cx="108.91" cy="19.41" r="1.82"/><path class="cls-2" d="M108.91,17.79a1.61,1.61,0,1,1-1.61,1.61,1.61,1.61,0,0,1,1.61-1.61m0-.42a2,2,0,1,0,2,2,2,2,0,0,0-2-2Z"/><path class="cls-3" d="M108.91,18.15a1.26,1.26,0,1,1-1.26,1.26,1.26,1.26,0,0,1,1.26-1.26m0-.35a1.61,1.61,0,1,0,1.61,1.61,1.61,1.61,0,0,0-1.61-1.61Z"/><circle class="cls-2" cx="130.73" cy="19.41" r="1.82"/><path class="cls-2" d="M130.73,17.79a1.61,1.61,0,1,1-1.61,1.61,1.61,1.61,0,0,1,1.61-1.61m0-.42a2,2,0,1,0,2,2,2,2,0,0,0-2-2Z"/><path class="cls-3" d="M130.73,18.15a1.26,1.26,0,1,1-1.26,1.26,1.26,1.26,0,0,1,1.26-1.26m0-.35a1.61,1.61,0,1,0,1.61,1.61,1.61,1.61,0,0,0-1.61-1.61Z"/><circle class="cls-2" cx="136.2" cy="19.41" r="1.82"/><path class="cls-2" d="M136.2,17.79a1.61,1.61,0,1,1-1.61,1.61,1.61,1.61,0,0,1,1.61-1.61m0-.42a2,2,0,1,0,2,2,2,2,0,0,0-2-2Z"/><path class="cls-3" d="M136.2,18.15a1.26,1.26,0,1,1-1.26,1.26,1.26,1.26,0,0,1,1.26-1.26m0-.35a1.61,1.61,0,1,0,1.61,1.61,1.61,1.61,0,0,0-1.61-1.61Z"/><circle class="cls-2" cx="130.73" cy="24.95" r="1.82"/><path class="cls-2" d="M130.73,23.34a1.61,1.61,0,1,1-1.61,1.61,1.61,1.61,0,0,1,1.61-1.61m0-.42a2,2,0,1,0,2,2,2,2,0,0,0-2-2Z"/><path class="cls-3" d="M130.73,23.69a1.26,1.26,0,1,1-1.26,1.26,1.26,1.26,0,0,1,1.26-1.26m0-.35a1.61,1.61,0,1,0,1.61,1.61,1.61,1.61,0,0,0-1.61-1.61Z"/><circle class="cls-2" cx="141.6" cy="47.05" r="1.82"/><path class="cls-2" d="M141.6,45.44A1.61,1.61,0,1,1,140,47.05a1.61,1.61,0,0,1,1.61-1.61m0-.42a2,2,0,1,0,2,2,2,2,0,0,0-2-2Z"/><path class="cls-3" d="M141.6,45.79a1.26,1.26,0,1,1-1.26,1.26,1.26,1.26,0,0,1,1.26-1.26m0-.35a1.61,1.61,0,1,0,1.61,1.61,1.61,1.61,0,0,0-1.61-1.61Z"/><circle class="cls-2" cx="157.87" cy="19.48" r="1.82"/><path class="cls-2" d="M157.87,17.87a1.61,1.61,0,1,1-1.61,1.61,1.61,1.61,0,0,1,1.61-1.61m0-.42a2,2,0,1,0,2,2,2,2,0,0,0-2-2Z"/><path class="cls-3" d="M157.87,18.22a1.26,1.26,0,1,1-1.26,1.26,1.26,1.26,0,0,1,1.26-1.26m0-.35a1.61,1.61,0,1,0,1.61,1.61,1.61,1.61,0,0,0-1.61-1.61Z"/><circle class="cls-2" cx="163.35" cy="19.41" r="1.82"/><path class="cls-2" d="M163.35,17.79a1.61,1.61,0,1,1-1.61,1.61,1.61,1.61,0,0,1,1.61-1.61m0-.42a2,2,0,1,0,2,2,2,2,0,0,0-2-2Z"/><path class="cls-3" d="M163.35,18.15a1.26,1.26,0,1,1-1.26,1.26,1.26,1.26,0,0,1,1.26-1.26m0-.35A1.61,1.61,0,1,0,165,19.41a1.61,1.61,0,0,0-1.61-1.61Z"/><circle class="cls-2" cx="141.6" cy="52.59" r="1.82"/><path class="cls-2" d="M141.6,51A1.61,1.61,0,1,1,140,52.59,1.61,1.61,0,0,1,141.6,51m0-.42a2,2,0,1,0,2,2,2,2,0,0,0-2-2Z"/><path class="cls-3" d="M141.6,51.33a1.26,1.26,0,1,1-1.26,1.26,1.26,1.26,0,0,1,1.26-1.26m0-.35a1.61,1.61,0,1,0,1.61,1.61A1.61,1.61,0,0,0,141.6,51Z"/><circle class="cls-4" cx="114.38" cy="19.41" r="1.82"/><path class="cls-4" d="M114.38,17.79a1.61,1.61,0,1,1-1.61,1.61,1.61,1.61,0,0,1,1.61-1.61m0-.42a2,2,0,1,0,2,2,2,2,0,0,0-2-2Z"/><path class="cls-3" d="M114.38,18.15a1.26,1.26,0,1,1-1.26,1.26,1.26,1.26,0,0,1,1.26-1.26m0-.35A1.61,1.61,0,1,0,116,19.41a1.61,1.61,0,0,0-1.61-1.61Z"/><circle class="cls-2" cx="114.38" cy="24.95" r="1.82"/><path class="cls-2" d="M114.38,23.34a1.61,1.61,0,1,1-1.61,1.61,1.61,1.61,0,0,1,1.61-1.61m0-.42a2,2,0,1,0,2,2,2,2,0,0,0-2-2Z"/><path class="cls-3" d="M114.38,23.69a1.26,1.26,0,1,1-1.26,1.26,1.26,1.26,0,0,1,1.26-1.26m0-.35A1.61,1.61,0,1,0,116,24.95a1.61,1.61,0,0,0-1.61-1.61Z"/><circle class="cls-2" cx="114.31" cy="30.49" r="1.82"/><path class="cls-2" d="M114.31,28.88a1.61,1.61,0,1,1-1.61,1.61,1.61,1.61,0,0,1,1.61-1.61m0-.42a2,2,0,1,0,2,2,2,2,0,0,0-2-2Z"/><path class="cls-3" d="M114.31,29.23a1.26,1.26,0,1,1-1.26,1.26,1.26,1.26,0,0,1,1.26-1.26m0-.35a1.61,1.61,0,1,0,1.61,1.61,1.61,1.61,0,0,0-1.61-1.61Z"/><circle class="cls-2" cx="81.66" cy="47.09" r="1.82"/><path class="cls-2" d="M81.66,45.47A1.61,1.61,0,1,1,80,47.09a1.61,1.61,0,0,1,1.61-1.61m0-.42a2,2,0,1,0,2,2,2,2,0,0,0-2-2Z"/><path class="cls-3" d="M81.66,45.83a1.26,1.26,0,1,1-1.26,1.26,1.26,1.26,0,0,1,1.26-1.26m0-.35a1.61,1.61,0,1,0,1.61,1.61,1.61,1.61,0,0,0-1.61-1.61Z"/><circle class="cls-2" cx="87.1" cy="47.09" r="1.82"/><path class="cls-2" d="M87.1,45.47a1.61,1.61,0,1,1-1.61,1.61,1.61,1.61,0,0,1,1.61-1.61m0-.42a2,2,0,1,0,2,2,2,2,0,0,0-2-2Z"/><path class="cls-3" d="M87.1,45.83a1.26,1.26,0,1,1-1.26,1.26,1.26,1.26,0,0,1,1.26-1.26m0-.35a1.61,1.61,0,1,0,1.61,1.61,1.61,1.61,0,0,0-1.61-1.61Z"/><circle class="cls-2" cx="92.6" cy="47.09" r="1.82"/><path class="cls-2" d="M92.6,45.47A1.61,1.61,0,1,1,91,47.09a1.61,1.61,0,0,1,1.61-1.61m0-.42a2,2,0,1,0,2,2,2,2,0,0,0-2-2Z"/><path class="cls-3" d="M92.6,45.83a1.26,1.26,0,1,1-1.26,1.26,1.26,1.26,0,0,1,1.26-1.26m0-.35a1.61,1.61,0,1,0,1.61,1.61,1.61,1.61,0,0,0-1.61-1.61Z"/><circle class="cls-2" cx="81.69" cy="80.31" r="1.82"/><path class="cls-2" d="M81.69,78.7a1.61,1.61,0,1,1-1.61,1.61,1.61,1.61,0,0,1,1.61-1.61m0-.42a2,2,0,1,0,2,2,2,2,0,0,0-2-2Z"/><path class="cls-3" d="M81.69,79a1.26,1.26,0,1,1-1.26,1.26A1.26,1.26,0,0,1,81.69,79m0-.35a1.61,1.61,0,1,0,1.61,1.61,1.61,1.61,0,0,0-1.61-1.61Z"/><circle class="cls-2" cx="114.38" cy="69.15" r="1.82"/><path class="cls-2" d="M114.38,67.54a1.61,1.61,0,1,1-1.61,1.61,1.61,1.61,0,0,1,1.61-1.61m0-.42a2,2,0,1,0,2,2,2,2,0,0,0-2-2Z"/><path class="cls-3" d="M114.38,67.89a1.26,1.26,0,1,1-1.26,1.26,1.26,1.26,0,0,1,1.26-1.26m0-.35A1.61,1.61,0,1,0,116,69.15a1.61,1.61,0,0,0-1.61-1.61Z"/><circle class="cls-2" cx="103.44" cy="69.08" r="1.82"/><path class="cls-2" d="M103.44,67.47a1.61,1.61,0,1,1-1.61,1.61,1.61,1.61,0,0,1,1.61-1.61m0-.42a2,2,0,1,0,2,2,2,2,0,0,0-2-2Z"/><path class="cls-3" d="M103.44,67.82a1.26,1.26,0,1,1-1.26,1.26,1.26,1.26,0,0,1,1.26-1.26m0-.35a1.61,1.61,0,1,0,1.61,1.61,1.61,1.61,0,0,0-1.61-1.61Z"/><circle class="cls-2" cx="114.38" cy="63.61" r="1.82"/><path class="cls-2" d="M114.38,62a1.61,1.61,0,1,1-1.61,1.61A1.61,1.61,0,0,1,114.38,62m0-.42a2,2,0,1,0,2,2,2,2,0,0,0-2-2Z"/><path class="cls-3" d="M114.38,62.35a1.26,1.26,0,1,1-1.26,1.26,1.26,1.26,0,0,1,1.26-1.26m0-.35A1.61,1.61,0,1,0,116,63.61,1.61,1.61,0,0,0,114.38,62Z"/><circle class="cls-2" cx="125.22" cy="107.81" r="1.82"/><path class="cls-2" d="M125.22,106.2a1.61,1.61,0,1,1-1.61,1.61,1.61,1.61,0,0,1,1.61-1.61m0-.42a2,2,0,1,0,2,2,2,2,0,0,0-2-2Z"/><path class="cls-3" d="M125.22,106.55a1.26,1.26,0,1,1-1.26,1.26,1.26,1.26,0,0,1,1.26-1.26m0-.35a1.61,1.61,0,1,0,1.61,1.61,1.61,1.61,0,0,0-1.61-1.61Z"/><circle class="cls-2" cx="152.5" cy="113.28" r="1.82"/><path class="cls-2" d="M152.5,111.67a1.61,1.61,0,1,1-1.61,1.61,1.61,1.61,0,0,1,1.61-1.61m0-.42a2,2,0,1,0,2,2,2,2,0,0,0-2-2Z"/><path class="cls-3" d="M152.5,112a1.26,1.26,0,1,1-1.26,1.26A1.26,1.26,0,0,1,152.5,112m0-.35a1.61,1.61,0,1,0,1.61,1.61,1.61,1.61,0,0,0-1.61-1.61Z"/><circle class="cls-2" cx="163.31" cy="102.27" r="1.82"/><path class="cls-2" d="M163.31,100.65a1.61,1.61,0,1,1-1.61,1.61,1.61,1.61,0,0,1,1.61-1.61m0-.42a2,2,0,1,0,2,2,2,2,0,0,0-2-2Z"/><path class="cls-3" d="M163.31,101a1.26,1.26,0,1,1-1.26,1.26,1.26,1.26,0,0,1,1.26-1.26m0-.35a1.61,1.61,0,1,0,1.61,1.61,1.61,1.61,0,0,0-1.61-1.61Z"/><circle class="cls-2" cx="179.65" cy="80.17" r="1.82"/><path class="cls-2" d="M179.65,78.55A1.61,1.61,0,1,1,178,80.17a1.61,1.61,0,0,1,1.61-1.61m0-.42a2,2,0,1,0,2,2,2,2,0,0,0-2-2Z"/><path class="cls-3" d="M179.65,78.91a1.26,1.26,0,1,1-1.26,1.26,1.26,1.26,0,0,1,1.26-1.26m0-.35a1.61,1.61,0,1,0,1.61,1.61,1.61,1.61,0,0,0-1.61-1.61Z"/><circle class="cls-2" cx="174.25" cy="80.17" r="1.82"/><path class="cls-2" d="M174.25,78.55a1.61,1.61,0,1,1-1.61,1.61,1.61,1.61,0,0,1,1.61-1.61m0-.42a2,2,0,1,0,2,2,2,2,0,0,0-2-2Z"/><path class="cls-3" d="M174.25,78.91A1.26,1.26,0,1,1,173,80.17a1.26,1.26,0,0,1,1.26-1.26m0-.35a1.61,1.61,0,1,0,1.61,1.61,1.61,1.61,0,0,0-1.61-1.61Z"/><circle class="cls-2" cx="168.85" cy="102.27" r="1.82"/><path class="cls-2" d="M168.85,100.65a1.61,1.61,0,1,1-1.61,1.61,1.61,1.61,0,0,1,1.61-1.61m0-.42a2,2,0,1,0,2,2,2,2,0,0,0-2-2Z"/><path class="cls-3" d="M168.85,101a1.26,1.26,0,1,1-1.26,1.26,1.26,1.26,0,0,1,1.26-1.26m0-.35a1.61,1.61,0,1,0,1.61,1.61,1.61,1.61,0,0,0-1.61-1.61Z"/><circle class="cls-2" cx="152.43" cy="118.82" r="1.82"/><path class="cls-2" d="M152.43,117.21a1.61,1.61,0,1,1-1.61,1.61,1.61,1.61,0,0,1,1.61-1.61m0-.42a2,2,0,1,0,2,2,2,2,0,0,0-2-2Z"/><path class="cls-3" d="M152.43,117.57a1.26,1.26,0,1,1-1.26,1.26,1.26,1.26,0,0,1,1.26-1.26m0-.35a1.61,1.61,0,1,0,1.61,1.61,1.61,1.61,0,0,0-1.61-1.61Z"/><circle class="cls-2" cx="163.38" cy="135.38" r="1.82"/><path class="cls-2" d="M163.38,133.77a1.61,1.61,0,1,1-1.61,1.61,1.61,1.61,0,0,1,1.61-1.61m0-.42a2,2,0,1,0,2,2,2,2,0,0,0-2-2Z"/><path class="cls-3" d="M163.38,134.12a1.26,1.26,0,1,1-1.26,1.26,1.26,1.26,0,0,1,1.26-1.26m0-.35a1.61,1.61,0,1,0,1.61,1.61,1.61,1.61,0,0,0-1.61-1.61Z"/><circle class="cls-2" cx="157.98" cy="141" r="1.82"/><path class="cls-2" d="M158,139.38a1.61,1.61,0,1,1-1.61,1.61,1.61,1.61,0,0,1,1.61-1.61m0-.42a2,2,0,1,0,2,2,2,2,0,0,0-2-2Z"/><path class="cls-3" d="M158,139.74a1.26,1.26,0,1,1-1.26,1.26,1.26,1.26,0,0,1,1.26-1.26m0-.35a1.61,1.61,0,1,0,1.61,1.61,1.61,1.61,0,0,0-1.61-1.61Z"/><circle class="cls-2" cx="152.43" cy="141" r="1.82"/><path class="cls-2" d="M152.43,139.38a1.61,1.61,0,1,1-1.61,1.61,1.61,1.61,0,0,1,1.61-1.61m0-.42a2,2,0,1,0,2,2,2,2,0,0,0-2-2Z"/><path class="cls-3" d="M152.43,139.74a1.26,1.26,0,1,1-1.26,1.26,1.26,1.26,0,0,1,1.26-1.26m0-.35A1.61,1.61,0,1,0,154,141a1.61,1.61,0,0,0-1.61-1.61Z"/><circle class="cls-2" cx="152.43" cy="146.54" r="1.82"/><path class="cls-2" d="M152.43,144.93a1.61,1.61,0,1,1-1.61,1.61,1.61,1.61,0,0,1,1.61-1.61m0-.42a2,2,0,1,0,2,2,2,2,0,0,0-2-2Z"/><path class="cls-3" d="M152.43,145.28a1.26,1.26,0,1,1-1.26,1.26,1.26,1.26,0,0,1,1.26-1.26m0-.35a1.61,1.61,0,1,0,1.61,1.61,1.61,1.61,0,0,0-1.61-1.61Z"/><circle class="cls-2" cx="158.02" cy="185.2" r="1.82"/><path class="cls-2" d="M158,183.59a1.61,1.61,0,1,1-1.61,1.61,1.61,1.61,0,0,1,1.61-1.61m0-.42a2,2,0,1,0,2,2,2,2,0,0,0-2-2Z"/><path class="cls-3" d="M158,183.94a1.26,1.26,0,1,1-1.26,1.26,1.26,1.26,0,0,1,1.26-1.26m0-.35a1.61,1.61,0,1,0,1.61,1.61,1.61,1.61,0,0,0-1.61-1.61Z"/><circle class="cls-2" cx="157.93" cy="190.69" r="1.82"/><path class="cls-2" d="M157.93,189.08a1.61,1.61,0,1,1-1.61,1.61,1.61,1.61,0,0,1,1.61-1.61m0-.42a2,2,0,1,0,2,2,2,2,0,0,0-2-2Z"/><path class="cls-3" d="M157.93,189.43a1.26,1.26,0,1,1-1.26,1.26,1.26,1.26,0,0,1,1.26-1.26m0-.35a1.61,1.61,0,1,0,1.61,1.61,1.61,1.61,0,0,0-1.61-1.61Z"/><circle class="cls-2" cx="157.9" cy="135.38" r="1.82"/><path class="cls-2" d="M157.9,133.77a1.61,1.61,0,1,1-1.61,1.61,1.61,1.61,0,0,1,1.61-1.61m0-.42a2,2,0,1,0,2,2,2,2,0,0,0-2-2Z"/><path class="cls-3" d="M157.9,134.12a1.26,1.26,0,1,1-1.26,1.26,1.26,1.26,0,0,1,1.26-1.26m0-.35a1.61,1.61,0,1,0,1.61,1.61,1.61,1.61,0,0,0-1.61-1.61Z"/><circle class="cls-2" cx="5.48" cy="74.75" r="4.89"/><path class="cls-2" d="M5.48,70.44a4.31,4.31,0,1,1-4.31,4.31,4.31,4.31,0,0,1,4.31-4.31m0-1.17A5.48,5.48,0,1,0,11,74.75a5.48,5.48,0,0,0-5.48-5.48Z"/><path class="cls-3" d="M5.48,71.41a3.33,3.33,0,1,1-3.33,3.33,3.34,3.34,0,0,1,3.33-3.33m0-1a4.31,4.31,0,1,0,4.31,4.31,4.31,4.31,0,0,0-4.31-4.31Z"/><circle class="cls-2" cx="32.69" cy="36.09" r="3.91"/><path class="cls-2" d="M32.69,32.64a3.45,3.45,0,1,1-3.45,3.45,3.45,3.45,0,0,1,3.45-3.45m0-.93a4.38,4.38,0,1,0,4.38,4.38,4.39,4.39,0,0,0-4.38-4.38Z"/><path class="cls-3" d="M32.69,33.42A2.67,2.67,0,1,1,30,36.09a2.67,2.67,0,0,1,2.67-2.67m0-.78a3.45,3.45,0,1,0,3.45,3.45,3.45,3.45,0,0,0-3.45-3.45Z"/></svg>